<svg id="918c03aa-fc32-48bf-b3b0-0699593ac701" data-name="Layer 1" xmlns="http://www.w3.org/2000/svg" viewBox="0 0 64.08 897.84"><defs></defs><title>#</title><g id="52bdf94d-1253-43dd-a201-4af5a17d849e" data-name="Ultra"><path class="fc3d5b6b-0c14-4983-a97a-dd879f45c05e" d="M9.62,889V875.48H33.47a32.63,32.63,0,0,0,7.35-.5,7.55,7.55,0,0,0,4.34-4.14,20.26,20.26,0,0,0,1.64-8.95q0-5.77-1.54-8.69a6.33,6.33,0,0,0-3.79-3.52,32.75,32.75,0,0,0-7.47-.59H9.66V835.53H32.79q7.92,0,11.2,1.1a11.41,11.41,0,0,1,5.52,4,22.7,22.7,0,0,1,3.58,7.89,50.84,50.84,0,0,1,1.32,12.9q0,9.61-1.47,14.57a22.54,22.54,0,0,1-3.79,7.85,11.45,11.45,0,0,1-4.88,3.8Q40.48,889,33.09,889H9.62Z"/><path class="fc3d5b6b-0c14-4983-a97a-dd879f45c05e" d="M53.69,820.89H10V807.35H46.29l0-33.68h7.41Z"/><path class="fc3d5b6b-0c14-4983-a97a-dd879f45c05e" d="M53.76,755.87H17.2l0,19.9H9.73l0.05-53.31h7.44l0,19.86H53.77v13.54Z"/><path class="fc3d5b6b-0c14-4983-a97a-dd879f45c05e" d="M53.8,713.68h-44l0-28.51q0-10.75,1.2-15.63a15.72,15.72,0,0,1,4.22-7.8,9.72,9.72,0,0,1,15.11,1.51q3.22,4.44,4.05,13.27a33.44,33.44,0,0,1,3.7-7.25,57.44,57.44,0,0,1,7.15-7.71l8.59-8.19,0,16.2-9.59,9.79a72.19,72.19,0,0,0-6.48,7.14,11.69,11.69,0,0,0-1.83,4.07,33.47,33.47,0,0,0-.5,6.82v2.75H53.81v13.54ZM28.42,700.14v-10q0-9.75-.53-12.17a7.77,7.77,0,0,0-1.86-3.8,4.39,4.39,0,0,0-3.3-1.37,4.29,4.29,0,0,0-3.59,1.81,10.24,10.24,0,0,0-1.73,5.1q-0.15,1.65-.16,9.88v10.57H28.42Z"/><path class="fc3d5b6b-0c14-4983-a97a-dd879f45c05e" d="M53.92,585.57V600.3l-10,5.86,0,26.81,10,5.54v14.37l-44-26.13V612.43ZM36.49,610.51l-16.34,9.24,16.32,9.06Z"/><path class="fc3d5b6b-0c14-4983-a97a-dd879f45c05e" d="M53.93,578H10.29V564.47H46.53l0-33.68H54Z"/><path class="fc3d5b6b-0c14-4983-a97a-dd879f45c05e" d="M54,521.56H10V508H54v13.54Z"/><path class="fc3d5b6b-0c14-4983-a97a-dd879f45c05e" d="M37.86,463.9H30.45l0-29.19H48Q50.7,439,52.75,447a66.06,66.06,0,0,1,2,16.36,52.8,52.8,0,0,1-2.92,18.35q-2.9,7.83-8.3,11.76a19.48,19.48,0,0,1-11.73,3.93,18.68,18.68,0,0,1-12.21-4.39q-5.34-4.39-8.18-12.86a50.46,50.46,0,0,1-2.18-16.06q0-12.49,3.46-19.52t9.51-9L23.89,449a10.39,10.39,0,0,0-5.12,5.33,22.56,22.56,0,0,0-1.88,9.77q0,8.88,3.68,14.12t11,5.24q7.83,0,11.76-5.31t3.93-13.91a34.27,34.27,0,0,0-1.09-8.53,35.83,35.83,0,0,0-2.65-7.34H37.88V463.9Z"/><path class="fc3d5b6b-0c14-4983-a97a-dd879f45c05e" d="M54.08,422.18h-44V408.63H27.41l0-26.54H10.12V368.55h44v13.54H34.88l0,26.54H54.1v13.54Z"/><path class="fc3d5b6b-0c14-4983-a97a-dd879f45c05e" d="M54.17,339.45H17.6l0,19.9H10.14L10.19,306h7.44l0,19.86H54.18v13.54Z"/><path class="fc3d5b6b-0c14-4983-a97a-dd879f45c05e" d="M10.23,271.23l0-26.81a117.4,117.4,0,0,1,.45-11.87,23.42,23.42,0,0,1,1.82-7,15.09,15.09,0,0,1,3.68-5.15,7.52,7.52,0,0,1,5.15-2.06A7.94,7.94,0,0,1,27,220.88a15.69,15.69,0,0,1,3.87,6.89q1.18-6.13,4-9.42A8.51,8.51,0,0,1,41.53,215a9.62,9.62,0,0,1,5.84,2.13A14.82,14.82,0,0,1,51.89,223,26.23,26.23,0,0,1,54,232.06q0.24,3.39.28,16.33l0,22.83h-44Zm7.34-13.54H27.74v-8.88q0-7.91-.14-9.84A11.56,11.56,0,0,0,26,233.5a4,4,0,0,0-6.75-.27,9.87,9.87,0,0,0-1.55,5.1q-0.15,2-.16,11.58v7.78Zm17.5,0H46.83V245.15q0-7.32-.26-9.29a10.21,10.21,0,0,0-1.75-4.92A4.4,4.4,0,0,0,41.1,229a4.45,4.45,0,0,0-3.36,1.46,9,9,0,0,0-2,4.23q-0.63,2.77-.64,12v10.94Z"/><path class="fc3d5b6b-0c14-4983-a97a-dd879f45c05e" d="M54.3,203.6h-44l0-49.74h7.44l0,36.19H27.5l0-33.68H35l0,33.68h12l0-37.47h7.41Z"/><path class="fc3d5b6b-0c14-4983-a97a-dd879f45c05e" d="M54.42,80.61V95.34l-10,5.86,0,26.81,10,5.54v14.37l-44-26.13V107.47ZM37,105.55l-16.34,9.24L37,123.85Z"/><path class="fc3d5b6b-0c14-4983-a97a-dd879f45c05e" d="M54.43,73.61h-44l0-20.27,30-12.17-30-12,0-20.32h44V21.4H19.84L54.46,34.72v13L19.8,61H54.44V73.61Z"/></g></svg>