<svg id="b974ae95-0735-4893-8551-25d06e0025a1" data-name="Layer 1" xmlns="http://www.w3.org/2000/svg" viewBox="0 0 64.08 1596.24"><defs><style>.e13a09bb-b9d7-471f-8068-ddaf5a08bc43{fill:none;}</style></defs><title>#</title><g id="2df6c8d8-51e5-4ca8-aeba-8f0a131556f3" data-name="FSM1"><path class="e13a09bb-b9d7-471f-8068-ddaf5a08bc43" d="M53.18,1587.1h-44l0-46h7.45l0,32.44H27l0-28h7.44l0,28h18.7v13.54Z"/><path class="e13a09bb-b9d7-471f-8068-ddaf5a08bc43" d="M53.29,1474.64v14.73l-10,5.86,0,26.81,10,5.54v14.37l-44-26.13V1501.5Zm-17.43,24.94-16.34,9.24,16.32,9.06Z"/><path class="e13a09bb-b9d7-471f-8068-ddaf5a08bc43" d="M53.3,1459.31H16.74l0,19.9H9.28l0.05-53.31h7.44l0,19.86H53.31v13.54Z"/><path class="e13a09bb-b9d7-471f-8068-ddaf5a08bc43" d="M53.34,1417.12h-44v-13.54H26.67l0-26.54H9.38V1363.5h44V1377H34.14l0,26.54H53.36v13.54Z"/><path class="e13a09bb-b9d7-471f-8068-ddaf5a08bc43" d="M53.41,1349.5H9.4l0-49.74H16.9l0,36.19h9.75l0-33.68h7.41L34,1336H46l0-37.47h7.41Z"/><path class="e13a09bb-b9d7-471f-8068-ddaf5a08bc43" d="M53.47,1286.95h-44l0-28.51q0-10.75,1.2-15.63a15.74,15.74,0,0,1,4.22-7.8A9.72,9.72,0,0,1,30,1236.53q3.22,4.44,4.05,13.27a33.53,33.53,0,0,1,3.7-7.25,57.51,57.51,0,0,1,7.15-7.71l8.59-8.19,0,16.2-9.58,9.79a72.24,72.24,0,0,0-6.48,7.14,11.73,11.73,0,0,0-1.83,4.07,33.47,33.47,0,0,0-.5,6.82v2.75H53.48v13.54ZM28.09,1273.4v-10q0-9.75-.53-12.17a7.78,7.78,0,0,0-1.86-3.8,4.39,4.39,0,0,0-3.3-1.37,4.29,4.29,0,0,0-3.59,1.81,10.24,10.24,0,0,0-1.73,5.1q-0.15,1.65-.16,9.88v10.57H28.09Z"/><path class="e13a09bb-b9d7-471f-8068-ddaf5a08bc43" d="M39.24,1196.72l-0.83-13.18a10,10,0,0,0,6.4-4.83q2-3.64,2.05-9.81,0-6.54-1.81-9.86t-4.24-3.32a3.28,3.28,0,0,0-2.66,1.4,13.12,13.12,0,0,0-1.91,4.87q-0.54,2.38-1.93,10.84-1.78,10.89-4.37,15.28-3.64,6.18-8.86,6.18a8.82,8.82,0,0,1-6.29-2.91,18.61,18.61,0,0,1-4.45-8.37,49.48,49.48,0,0,1-1.52-13.2q0-12.63,3.65-19t9.7-6.7l0.38,13.54a7.24,7.24,0,0,0-4.88,3.73q-1.49,2.86-1.49,8.58a21.9,21.9,0,0,0,1.58,9.24q1,2.15,2.73,2.15t2.67-2q1.41-2.56,3-12.45a91.34,91.34,0,0,1,3.18-14.62,18.13,18.13,0,0,1,4.48-7.41,9.83,9.83,0,0,1,7-2.68,10,10,0,0,1,7.08,3.2,19.48,19.48,0,0,1,4.9,9.06,56.16,56.16,0,0,1,1.59,14.6q0,12.72-3.88,19.54A15.62,15.62,0,0,1,39.24,1196.72Z"/><path class="e13a09bb-b9d7-471f-8068-ddaf5a08bc43" d="M53.64,1115.69H17.08l0,19.9H9.61l0.05-53.3h7.44l0,19.86H53.65v13.54Z"/><path class="e13a09bb-b9d7-471f-8068-ddaf5a08bc43" d="M53.68,1073.5h-44l0-28.51q0-10.75,1.2-15.63a15.72,15.72,0,0,1,4.23-7.8,9.72,9.72,0,0,1,15.11,1.51q3.22,4.44,4.05,13.27a33.48,33.48,0,0,1,3.7-7.25,57.46,57.46,0,0,1,7.15-7.71l8.59-8.19,0,16.2-9.58,9.79a72.06,72.06,0,0,0-6.48,7.14,11.69,11.69,0,0,0-1.83,4.07,33.45,33.45,0,0,0-.5,6.82V1060H53.69v13.54ZM28.3,1060v-10q0-9.75-.53-12.17a7.78,7.78,0,0,0-1.86-3.8,4.39,4.39,0,0,0-3.3-1.37A4.29,4.29,0,0,0,19,1034.4a10.23,10.23,0,0,0-1.73,5.1q-0.15,1.65-.16,9.88V1060H28.3Z"/><path class="e13a09bb-b9d7-471f-8068-ddaf5a08bc43" d="M53.75,1005.87h-44l0-49.74h7.45l0,36.19H27l0-33.68H34.4l0,33.68h12l0-37.47H53.8Z"/><path class="e13a09bb-b9d7-471f-8068-ddaf5a08bc43" d="M53.82,928.27H17.26l0,19.9H9.8l0.05-53.3h7.44l0,19.86H53.83v13.54Z"/><path class="e13a09bb-b9d7-471f-8068-ddaf5a08bc43" d="M37.73,843.21l2.74-13.13a20.39,20.39,0,0,1,10.69,10q3.49,7,3.48,17.82,0,13.36-6,22a18.94,18.94,0,0,1-16.38,8.6q-11,0-17.06-8.65T9.13,857.12q0-12.31,4.79-20A17.34,17.34,0,0,1,22,830.26l2.09,13.41a9.71,9.71,0,0,0-5.41,5,19.55,19.55,0,0,0-2,9.17q0,7.46,3.5,12.1t11.37,4.64q8.35,0,11.89-4.58T47,858.08a18.23,18.23,0,0,0-2.24-9.29A12.62,12.62,0,0,0,37.73,843.21Z"/><path class="e13a09bb-b9d7-471f-8068-ddaf5a08bc43" d="M53.93,818.41h-44V804.87H27.26l0-26.54H10V764.79H54v13.54H34.73l0,26.54H53.94v13.54Z"/><path class="e13a09bb-b9d7-471f-8068-ddaf5a08bc43" d="M54,724.93H10l0-20.27,30-12.17-30-12,0-20.32h44v12.58H19.43L54.06,686v13L19.39,712.35H54v12.58Z"/><path class="e13a09bb-b9d7-471f-8068-ddaf5a08bc43" d="M54.12,629.08H35.59L10.08,653.65l0-15.88L27.53,622l-17.4-15.47,0-15.6,25.52,24.66H54.13v13.5Z"/><path class="e13a09bb-b9d7-471f-8068-ddaf5a08bc43" d="M54.18,559.8h-44V546.26H27.51l0-26.54H10.22V506.18h44v13.54H35l0,26.54H54.2V559.8Z"/><path class="e13a09bb-b9d7-471f-8068-ddaf5a08bc43" d="M54.31,431.69v14.73l-10,5.86,0,26.81,10,5.54V499l-44-26.13V458.54ZM36.87,456.62l-16.34,9.24,16.32,9.06Z"/><path class="e13a09bb-b9d7-471f-8068-ddaf5a08bc43" d="M54.32,424.37h-44V411.19l29.42-27.45H10.35V371.15h44v13.59l-28.72,27h28.7v12.58Z"/><path class="e13a09bb-b9d7-471f-8068-ddaf5a08bc43" d="M10.38,356.88l0-24.75a72.9,72.9,0,0,1,.85-12.77,26.38,26.38,0,0,1,4.06-10.11,19.69,19.69,0,0,1,7.14-6.41,22.34,22.34,0,0,1,10.4-2.2,19.94,19.94,0,0,1,9.36,2.06A20.19,20.19,0,0,1,50,309.89a28.79,28.79,0,0,1,3.5,9.52,61.47,61.47,0,0,1,.92,12l0,25.49h-44Zm7.46-13.54H47V333.22a55.84,55.84,0,0,0-.41-8.19,15.62,15.62,0,0,0-1.83-5.47A9.26,9.26,0,0,0,40.51,316a19.46,19.46,0,0,0-8.06-1.37A17.88,17.88,0,0,0,24.61,316a10.39,10.39,0,0,0-4.27,3.84,16.16,16.16,0,0,0-2.08,6.27,93.26,93.26,0,0,0-.43,11.12v6.08Z"/><path class="e13a09bb-b9d7-471f-8068-ddaf5a08bc43" d="M40.13,292.59L39.3,279.41a10,10,0,0,0,6.4-4.83q2-3.64,2.05-9.81,0-6.54-1.81-9.86t-4.24-3.32A3.28,3.28,0,0,0,39,253a13.12,13.12,0,0,0-1.91,4.87q-0.54,2.38-1.93,10.84Q33.41,279.6,30.83,284q-3.64,6.18-8.86,6.18a8.83,8.83,0,0,1-6.29-2.91,18.62,18.62,0,0,1-4.45-8.37,49.45,49.45,0,0,1-1.52-13.2q0-12.63,3.65-19t9.7-6.7l0.38,13.54a7.23,7.23,0,0,0-4.88,3.73q-1.49,2.86-1.5,8.58a21.9,21.9,0,0,0,1.58,9.24q1,2.15,2.73,2.15,1.56,0,2.67-2,1.41-2.56,3-12.45a91.42,91.42,0,0,1,3.18-14.62,18.12,18.12,0,0,1,4.48-7.41,9.83,9.83,0,0,1,7-2.68,10,10,0,0,1,7.08,3.2,19.48,19.48,0,0,1,4.9,9.06,56.16,56.16,0,0,1,1.59,14.6q0,12.72-3.88,19.54A15.62,15.62,0,0,1,40.13,292.59Z"/><path class="e13a09bb-b9d7-471f-8068-ddaf5a08bc43" d="M54.54,200.62h-44l0-21.73q0-12.35.68-16.11a19.71,19.71,0,0,1,4.32-9.65,10.75,10.75,0,0,1,8.57-3.89,10.45,10.45,0,0,1,6.81,2.24,15.45,15.45,0,0,1,4.33,5.7,25.52,25.52,0,0,1,2.08,7,117,117,0,0,1,.62,14v8.83h16.6v13.54ZM18,187.08H30.47v-7.41q0-8-.68-10.71a9.32,9.32,0,0,0-2.16-4.23,4.6,4.6,0,0,0-3.42-1.53,4.73,4.73,0,0,0-4,2.15,11.42,11.42,0,0,0-2,5.45q-0.3,2.43-.31,9.75v6.54Z"/><path class="e13a09bb-b9d7-471f-8068-ddaf5a08bc43" d="M54.61,123H18l0,19.9H10.58l0.05-53.31h7.44l0,19.86H54.62V123Z"/><path class="e13a09bb-b9d7-471f-8068-ddaf5a08bc43" d="M54.64,91.36H46.21V78.5h8.43V91.36Z"/><path class="e13a09bb-b9d7-471f-8068-ddaf5a08bc43" d="M54.72,9.14V22H22.92A52.94,52.94,0,0,1,29.3,38.6H21.64a45.17,45.17,0,0,0-4.09-10.94q-3-5.9-7-8.1V9.14H54.72Z"/></g></svg>