<svg id="55775da0-cf33-47e4-8929-38d4b2c6de3a" data-name="Layer 1" xmlns="http://www.w3.org/2000/svg" viewBox="0 0 64.08 1606.32"><defs><style>.\32 a6f03c7-a348-42db-a19e-e8e5f4756653{fill:none;}</style></defs><title>#</title><g id="b0a9fdc7-7ec4-4c27-bef7-9411283a2064" data-name="FSMH2"><path class="2a6f03c7-a348-42db-a19e-e8e5f4756653" d="M53.18,1597.41h-44l0-46h7.45l0,32.44H27l0-28h7.44l0,28h18.7v13.54Z"/><path class="2a6f03c7-a348-42db-a19e-e8e5f4756653" d="M53.29,1484.94v14.73l-10,5.86,0,26.81,10,5.54v14.37l-44-26.13V1511.8Zm-17.43,24.94-16.34,9.24,16.32,9.06Z"/><path class="2a6f03c7-a348-42db-a19e-e8e5f4756653" d="M53.3,1469.61H16.74l0,19.9H9.28l0.05-53.31h7.44l0,19.86H53.31v13.54Z"/><path class="2a6f03c7-a348-42db-a19e-e8e5f4756653" d="M53.34,1427.42h-44v-13.54H26.67l0-26.54H9.38V1373.8h44v13.54H34.14l0,26.54H53.36v13.54Z"/><path class="2a6f03c7-a348-42db-a19e-e8e5f4756653" d="M53.41,1359.8H9.4l0-49.74H16.9l0,36.19h9.75l0-33.68h7.41l0,33.68H46l0-37.47h7.41Z"/><path class="2a6f03c7-a348-42db-a19e-e8e5f4756653" d="M53.47,1297.25h-44l0-28.51q0-10.75,1.2-15.63a15.74,15.74,0,0,1,4.22-7.8A9.72,9.72,0,0,1,30,1246.83q3.22,4.44,4.05,13.27a33.53,33.53,0,0,1,3.7-7.25,57.51,57.51,0,0,1,7.15-7.71l8.59-8.19,0,16.2-9.58,9.79a72.24,72.24,0,0,0-6.48,7.14,11.73,11.73,0,0,0-1.83,4.07,33.47,33.47,0,0,0-.5,6.82v2.75H53.48v13.54Zm-25.38-13.54v-10q0-9.75-.53-12.17a7.78,7.78,0,0,0-1.86-3.8,4.39,4.39,0,0,0-3.3-1.37,4.29,4.29,0,0,0-3.59,1.81,10.24,10.24,0,0,0-1.73,5.1q-0.15,1.65-.16,9.88v10.57H28.09Z"/><path class="2a6f03c7-a348-42db-a19e-e8e5f4756653" d="M39.24,1207l-0.83-13.18a10,10,0,0,0,6.4-4.83q2-3.64,2.05-9.81,0-6.54-1.81-9.86T40.81,1166a3.28,3.28,0,0,0-2.66,1.4,13.12,13.12,0,0,0-1.91,4.87q-0.54,2.38-1.93,10.84-1.78,10.89-4.37,15.28-3.64,6.18-8.86,6.18a8.82,8.82,0,0,1-6.29-2.91,18.61,18.61,0,0,1-4.45-8.37,49.48,49.48,0,0,1-1.52-13.2q0-12.63,3.65-19t9.7-6.7l0.38,13.54a7.24,7.24,0,0,0-4.88,3.73q-1.49,2.86-1.49,8.58a21.9,21.9,0,0,0,1.58,9.24q1,2.15,2.73,2.15t2.67-2q1.41-2.56,3-12.45a91.34,91.34,0,0,1,3.18-14.62,18.13,18.13,0,0,1,4.48-7.41,9.83,9.83,0,0,1,7-2.68,10,10,0,0,1,7.08,3.2,19.48,19.48,0,0,1,4.9,9.06,56.16,56.16,0,0,1,1.59,14.6q0,12.72-3.88,19.54A15.62,15.62,0,0,1,39.24,1207Z"/><path class="2a6f03c7-a348-42db-a19e-e8e5f4756653" d="M53.64,1126H17.08l0,19.9H9.61l0.05-53.3h7.44l0,19.86H53.65V1126Z"/><path class="2a6f03c7-a348-42db-a19e-e8e5f4756653" d="M53.68,1083.8h-44l0-28.51q0-10.75,1.2-15.63a15.72,15.72,0,0,1,4.23-7.8,9.72,9.72,0,0,1,15.11,1.51q3.22,4.44,4.05,13.27a33.48,33.48,0,0,1,3.7-7.25,57.46,57.46,0,0,1,7.15-7.71l8.59-8.19,0,16.2-9.58,9.79a72.06,72.06,0,0,0-6.48,7.14,11.69,11.69,0,0,0-1.83,4.07,33.45,33.45,0,0,0-.5,6.82v2.75H53.69v13.54ZM28.3,1070.26v-10q0-9.75-.53-12.17a7.78,7.78,0,0,0-1.86-3.8,4.39,4.39,0,0,0-3.3-1.37A4.29,4.29,0,0,0,19,1044.7a10.23,10.23,0,0,0-1.73,5.1q-0.15,1.65-.16,9.88v10.57H28.3Z"/><path class="2a6f03c7-a348-42db-a19e-e8e5f4756653" d="M53.75,1016.18h-44l0-49.74h7.45l0,36.19H27L27,969H34.4l0,33.68h12l0-37.47H53.8Z"/><path class="2a6f03c7-a348-42db-a19e-e8e5f4756653" d="M53.82,938.57H17.26l0,19.9H9.8l0.05-53.3h7.44l0,19.86H53.83v13.54Z"/><path class="2a6f03c7-a348-42db-a19e-e8e5f4756653" d="M37.73,853.51l2.74-13.13a20.39,20.39,0,0,1,10.69,10q3.49,7,3.48,17.82,0,13.36-6,22a18.94,18.94,0,0,1-16.38,8.6q-11,0-17.06-8.65T9.13,867.42q0-12.31,4.79-20A17.34,17.34,0,0,1,22,840.56L24.13,854a9.71,9.71,0,0,0-5.41,5,19.55,19.55,0,0,0-2,9.17q0,7.46,3.5,12.1t11.37,4.64q8.35,0,11.89-4.58T47,868.38a18.23,18.23,0,0,0-2.24-9.29A12.62,12.62,0,0,0,37.73,853.51Z"/><path class="2a6f03c7-a348-42db-a19e-e8e5f4756653" d="M53.93,828.72h-44V815.17H27.26l0-26.54H10V775.09H54v13.54H34.73l0,26.54H53.94v13.54Z"/><path class="2a6f03c7-a348-42db-a19e-e8e5f4756653" d="M54,735.24H10L10,715l30-12.17-30-12,0-20.32h44V683H19.43l34.63,13.31v13L19.39,722.65H54v12.58Z"/><path class="2a6f03c7-a348-42db-a19e-e8e5f4756653" d="M54.12,639.38H35.59L10.08,663.95l0-15.88,17.43-15.78-17.4-15.47,0-15.6,25.52,24.66H54.13v13.5Z"/><path class="2a6f03c7-a348-42db-a19e-e8e5f4756653" d="M54.18,570.1h-44V556.56H27.51l0-26.54H10.22V516.48h44V530H35l0,26.54H54.2V570.1Z"/><path class="2a6f03c7-a348-42db-a19e-e8e5f4756653" d="M54.31,442v14.73l-10,5.86,0,26.81,10,5.54V509.3l-44-26.13V468.85ZM36.87,466.93l-16.34,9.24,16.32,9.06Z"/><path class="2a6f03c7-a348-42db-a19e-e8e5f4756653" d="M54.32,434.67h-44V421.49L39.74,394H10.35V381.45h44V395l-28.72,27h28.7v12.58Z"/><path class="2a6f03c7-a348-42db-a19e-e8e5f4756653" d="M10.38,367.18l0-24.75a72.9,72.9,0,0,1,.85-12.77,26.38,26.38,0,0,1,4.06-10.11,19.69,19.69,0,0,1,7.14-6.41,22.34,22.34,0,0,1,10.4-2.2A19.94,19.94,0,0,1,42.22,313,20.19,20.19,0,0,1,50,320.19a28.79,28.79,0,0,1,3.5,9.52,61.47,61.47,0,0,1,.92,12l0,25.49h-44Zm7.46-13.54H47V343.52a55.84,55.84,0,0,0-.41-8.19,15.62,15.62,0,0,0-1.83-5.47,9.26,9.26,0,0,0-4.24-3.55,19.46,19.46,0,0,0-8.06-1.37,17.88,17.88,0,0,0-7.84,1.37,10.39,10.39,0,0,0-4.27,3.84,16.16,16.16,0,0,0-2.08,6.27,93.26,93.26,0,0,0-.43,11.12v6.08Z"/><path class="2a6f03c7-a348-42db-a19e-e8e5f4756653" d="M40.13,302.89L39.3,289.72a10,10,0,0,0,6.4-4.83q2-3.64,2.05-9.81,0-6.54-1.81-9.86T41.7,261.9a3.28,3.28,0,0,0-2.66,1.4,13.12,13.12,0,0,0-1.91,4.87Q36.59,270.54,35.2,279q-1.78,10.89-4.37,15.28-3.64,6.18-8.86,6.18a8.83,8.83,0,0,1-6.29-2.91,18.62,18.62,0,0,1-4.45-8.37A49.45,49.45,0,0,1,9.71,276q0-12.63,3.65-19t9.7-6.7l0.38,13.54a7.23,7.23,0,0,0-4.88,3.73q-1.49,2.86-1.5,8.58a21.9,21.9,0,0,0,1.58,9.24q1,2.15,2.73,2.15,1.56,0,2.67-2,1.41-2.56,3-12.45a91.42,91.42,0,0,1,3.18-14.62A18.12,18.12,0,0,1,34.67,251a9.83,9.83,0,0,1,7-2.68,10,10,0,0,1,7.08,3.2,19.48,19.48,0,0,1,4.9,9.06,56.16,56.16,0,0,1,1.59,14.6q0,12.72-3.88,19.54A15.62,15.62,0,0,1,40.13,302.89Z"/><path class="2a6f03c7-a348-42db-a19e-e8e5f4756653" d="M54.54,210.92h-44l0-21.73q0-12.35.68-16.11a19.71,19.71,0,0,1,4.32-9.65,10.75,10.75,0,0,1,8.57-3.89,10.45,10.45,0,0,1,6.81,2.24,15.45,15.45,0,0,1,4.33,5.7,25.52,25.52,0,0,1,2.08,7,117,117,0,0,1,.62,14v8.83h16.6v13.54ZM18,197.38H30.47V190q0-8-.68-10.71A9.32,9.32,0,0,0,27.64,175a4.6,4.6,0,0,0-3.42-1.53,4.73,4.73,0,0,0-4,2.15,11.42,11.42,0,0,0-2,5.45q-0.3,2.43-.31,9.75v6.54Z"/><path class="2a6f03c7-a348-42db-a19e-e8e5f4756653" d="M54.61,133.32H18l0,19.9H10.58l0.05-53.31h7.44l0,19.86H54.62v13.54Z"/><path class="2a6f03c7-a348-42db-a19e-e8e5f4756653" d="M54.64,101.66H46.21V88.8h8.43v12.86Z"/><path class="2a6f03c7-a348-42db-a19e-e8e5f4756653" d="M46.9,8.91h7.83l0,45.07a16.32,16.32,0,0,1-8.42-4.39q-4-3.66-10.54-14.46-5.3-8.69-7.19-10.66-2.61-2.65-5.16-2.65A4.89,4.89,0,0,0,19,24.13a11.57,11.57,0,0,0-1.52,6.38,11.38,11.38,0,0,0,1.58,6.41,6.74,6.74,0,0,0,5.28,2.75L23.53,52.47a12.85,12.85,0,0,1-10-7.18q-3-6-3-15.1,0-9.93,3.53-15.6t8.74-5.67a10.76,10.76,0,0,1,5.66,1.62,23.59,23.59,0,0,1,5.62,5.15,74.64,74.64,0,0,1,5.6,8.42q3.66,6.08,4.86,7.71a17,17,0,0,0,2.34,2.63Z"/></g></svg>