<svg id="b33dff3f-255f-4903-9330-f9b6b022f9c5" data-name="Layer 1" xmlns="http://www.w3.org/2000/svg" viewBox="0 0 64.08 407.52"><defs><style>.fde682c5-a861-4df6-897b-40484621e0fe{fill:none;}</style></defs><title>#</title><g id="1856b543-cf3a-4477-98f4-e190142633ec" data-name="Famous"><path class="fde682c5-a861-4df6-897b-40484621e0fe" d="M53.74,398.45h-44l0-46h7.45l0,32.44H27.61l0-28h7.44l0,28h18.7v13.54Z"/><path class="fde682c5-a861-4df6-897b-40484621e0fe" d="M53.85,286v14.73l-10,5.86,0,26.81,10,5.54v14.37l-44-26.13V312.84ZM36.41,310.92l-16.34,9.24,16.32,9.06Z"/><path class="fde682c5-a861-4df6-897b-40484621e0fe" d="M53.86,279h-44l0-20.27,30-12.17-30-12,0-20.31h44v12.58H19.27l34.63,13.31v13L19.23,266.4H53.87V279Z"/><path class="fde682c5-a861-4df6-897b-40484621e0fe" d="M32.2,203.49a19.77,19.77,0,0,1-11.28-3.07,22.9,22.9,0,0,1-6-6.25,29.12,29.12,0,0,1-4-8.67A54.18,54.18,0,0,1,9.21,171q0-14.82,6.06-23.72a19.19,19.19,0,0,1,16.79-8.9,19.07,19.07,0,0,1,16.67,8.83q6,8.83,6,23.61,0,15-6,23.79A18.91,18.91,0,0,1,32.2,203.49Zm-0.29-14q7.48,0,11.34-5.26t3.87-13.36q0-8.1-3.81-13.29t-11.48-5.19q-7.56,0-11.29,5.06T16.8,170.91q0,8.37,3.75,13.5T31.91,189.53Z"/><path class="fde682c5-a861-4df6-897b-40484621e0fe" d="M10,127.94V114.4H33.85a32.63,32.63,0,0,0,7.35-.5,7.55,7.55,0,0,0,4.34-4.14,20.26,20.26,0,0,0,1.64-8.95q0-5.77-1.54-8.69a6.33,6.33,0,0,0-3.79-3.52A32.75,32.75,0,0,0,34.38,88H10V74.45H33.16q7.92,0,11.2,1.1a11.41,11.41,0,0,1,5.52,4,22.7,22.7,0,0,1,3.58,7.89,50.93,50.93,0,0,1,1.32,12.9q0,9.61-1.47,14.57a22.53,22.53,0,0,1-3.79,7.85,11.46,11.46,0,0,1-4.88,3.8q-3.78,1.33-11.17,1.33H10Z"/><path class="fde682c5-a861-4df6-897b-40484621e0fe" d="M39.75,63.61L38.92,50.43a10,10,0,0,0,6.4-4.83q2-3.64,2.05-9.81,0-6.54-1.81-9.86t-4.24-3.32A3.28,3.28,0,0,0,38.66,24a13.12,13.12,0,0,0-1.91,4.87q-0.54,2.38-1.93,10.84Q33,50.62,30.45,55q-3.64,6.18-8.86,6.18a8.82,8.82,0,0,1-6.29-2.91,18.62,18.62,0,0,1-4.45-8.37,49.45,49.45,0,0,1-1.52-13.2q0-12.63,3.65-19t9.7-6.7l0.38,13.54a7.24,7.24,0,0,0-4.88,3.73q-1.49,2.86-1.49,8.58a21.9,21.9,0,0,0,1.58,9.24q1,2.15,2.73,2.15t2.67-2q1.41-2.56,3-12.45a91.32,91.32,0,0,1,3.18-14.62,18.12,18.12,0,0,1,4.48-7.41,9.83,9.83,0,0,1,7-2.68,10,10,0,0,1,7.08,3.2,19.48,19.48,0,0,1,4.9,9.06,56.11,56.11,0,0,1,1.59,14.59q0,12.72-3.88,19.54A15.62,15.62,0,0,1,39.75,63.61Z"/></g></svg>