<svg id="ae107969-d63e-4678-934a-9a5a9968dba2" data-name="Layer 1" xmlns="http://www.w3.org/2000/svg" viewBox="0 0 64.08 531.36"><defs><style>.\37 4f207c4-01cb-4239-87e5-0c4422c9573a{fill:none;}</style></defs><title>#</title><g id="a9d63c59-26bc-45a4-999c-c65fbb292378" data-name="feedback"><path class="74f207c4-01cb-4239-87e5-0c4422c9573a" d="M53.64,522.44h-44l0-46h7.45l0,32.44H27.51l0-28H35l0,28h18.7v13.54Z"/><path class="74f207c4-01cb-4239-87e5-0c4422c9573a" d="M53.69,465.29h-44l0-49.74h7.45l0,36.19H26.9l0-33.68h7.41l0,33.68h12l0-37.47h7.41Z"/><path class="74f207c4-01cb-4239-87e5-0c4422c9573a" d="M53.76,402.79h-44L9.8,353h7.44l0,36.19H27l0-33.68h7.42l0,33.68h12l0-37.47h7.42Z"/><path class="74f207c4-01cb-4239-87e5-0c4422c9573a" d="M9.81,340.33l0-24.75a72.83,72.83,0,0,1,.85-12.77,26.38,26.38,0,0,1,4.06-10.11,19.7,19.7,0,0,1,7.14-6.41,22.35,22.35,0,0,1,10.4-2.2,19.94,19.94,0,0,1,9.36,2.06,20.18,20.18,0,0,1,7.77,7.18,28.76,28.76,0,0,1,3.5,9.52,61.47,61.47,0,0,1,.92,12l0,25.49h-44Zm7.46-13.54H46.41V316.67a55.84,55.84,0,0,0-.41-8.19A15.62,15.62,0,0,0,44.19,303a9.25,9.25,0,0,0-4.24-3.55,19.45,19.45,0,0,0-8.06-1.37A17.89,17.89,0,0,0,24,299.47a10.39,10.39,0,0,0-4.27,3.84,16.18,16.18,0,0,0-2.08,6.27,93.26,93.26,0,0,0-.43,11.12v6.09Z"/><path class="74f207c4-01cb-4239-87e5-0c4422c9573a" d="M9.88,272.57l0-26.81a117.4,117.4,0,0,1,.45-11.87,23.43,23.43,0,0,1,1.82-7,15.09,15.09,0,0,1,3.68-5.15A7.52,7.52,0,0,1,21,219.67a7.94,7.94,0,0,1,5.67,2.54,15.68,15.68,0,0,1,3.87,6.89q1.18-6.13,4-9.43a8.51,8.51,0,0,1,6.64-3.29A9.62,9.62,0,0,1,47,218.51a14.81,14.81,0,0,1,4.53,5.81,26.23,26.23,0,0,1,2.08,9.08q0.24,3.39.28,16.33l0,22.83h-44ZM17.21,259H27.39v-8.88q0-7.91-.14-9.84a11.56,11.56,0,0,0-1.57-5.47,4,4,0,0,0-6.75-.27,9.87,9.87,0,0,0-1.55,5.1q-0.15,2-.16,11.58V259Zm17.5,0H46.48V246.49q0-7.32-.26-9.29a10.21,10.21,0,0,0-1.75-4.92,4.4,4.4,0,0,0-3.74-1.9,4.45,4.45,0,0,0-3.36,1.46,9,9,0,0,0-2,4.23q-0.63,2.77-.64,12V259Z"/><path class="74f207c4-01cb-4239-87e5-0c4422c9573a" d="M54,144.45v14.73L44,165l0,26.81,10,5.54v14.37L10,185.63V171.31ZM36.57,169.39l-16.34,9.24,16.32,9.06Z"/><path class="74f207c4-01cb-4239-87e5-0c4422c9573a" d="M37.88,94.35l2.74-13.13a20.39,20.39,0,0,1,10.69,10q3.49,7,3.48,17.82,0,13.36-6,22a18.93,18.93,0,0,1-16.38,8.6q-11,0-17.06-8.65T9.29,108.26q0-12.31,4.79-20a17.34,17.34,0,0,1,8.11-6.86l2.09,13.41a9.71,9.71,0,0,0-5.41,5,19.55,19.55,0,0,0-2,9.17q0,7.46,3.5,12.1t11.37,4.64q8.35,0,11.89-4.58t3.55-11.9A18.23,18.23,0,0,0,45,99.93,12.62,12.62,0,0,0,37.88,94.35Z"/><path class="74f207c4-01cb-4239-87e5-0c4422c9573a" d="M54.08,69.41h-44V55.87H29.63L10.12,28.51l0-18.21L27.25,35.55,54.14,8.92l0,17.52L33.45,44.89l7.34,11H54.1V69.41Z"/></g></svg>