<svg id="8921e717-cecf-49cd-999a-ca9aaca56d89" data-name="Layer 1" xmlns="http://www.w3.org/2000/svg" viewBox="0 0 64.08 594.72"><defs><style>.\32 cf69494-0b0d-4e5e-ac10-f20e759720c6{fill:none;}</style></defs><title>#</title><g id="e69a5888-46ad-4314-9a85-40a4253a6d02" data-name="low"><path class="2cf69494-0b0d-4e5e-ac10-f20e759720c6" d="M53.72,585.57H10.07V572H46.32l0-33.68h7.41Z"/><path class="2cf69494-0b0d-4e5e-ac10-f20e759720c6" d="M32,531.44a19.77,19.77,0,0,1-11.28-3.07,22.9,22.9,0,0,1-6-6.25,29.1,29.1,0,0,1-4-8.67A54.17,54.17,0,0,1,9,499q0-14.82,6.06-23.72a19.19,19.19,0,0,1,16.79-8.9,19.07,19.07,0,0,1,16.67,8.83q6,8.83,6,23.61,0,15-6,23.79A18.91,18.91,0,0,1,32,531.44Zm-0.29-14q7.48,0,11.34-5.26T47,498.87q0-8.1-3.81-13.29t-11.48-5.19q-7.56,0-11.29,5.06t-3.74,13.43q0,8.37,3.75,13.5T31.75,517.49Z"/><path class="2cf69494-0b0d-4e5e-ac10-f20e759720c6" d="M53.85,446.29l-44,16V448.44l30.24-10.11L9.87,426.07l0-16.11L40.63,398.2,9.9,387.91V374.27l44,16.29v14.37L21,418.29l32.89,13.32v14.69Z"/><path class="2cf69494-0b0d-4e5e-ac10-f20e759720c6" d="M54,341H10.31V327.42H46.55l0-33.67H54Z"/><path class="2cf69494-0b0d-4e5e-ac10-f20e759720c6" d="M54,284.5H10V271H54V284.5Z"/><path class="2cf69494-0b0d-4e5e-ac10-f20e759720c6" d="M37.89,226.85H30.47l0-29.19H48q2.7,4.26,4.75,12.33a66.05,66.05,0,0,1,2,16.36,52.8,52.8,0,0,1-2.92,18.35q-2.9,7.83-8.3,11.76a19.48,19.48,0,0,1-11.73,3.93A18.68,18.68,0,0,1,19.67,256q-5.34-4.39-8.18-12.86a50.49,50.49,0,0,1-2.17-16.06q0-12.49,3.46-19.51t9.51-9L23.91,212a10.39,10.39,0,0,0-5.12,5.33,22.55,22.55,0,0,0-1.88,9.77q0,8.88,3.68,14.12t11,5.24q7.83,0,11.76-5.31t3.93-13.91a34.22,34.22,0,0,0-1.09-8.53,35.78,35.78,0,0,0-2.65-7.34H37.9v15.51Z"/><path class="2cf69494-0b0d-4e5e-ac10-f20e759720c6" d="M54.11,185.12h-44V171.58H27.44l0-26.54H10.14V131.5h44V145H34.91l0,26.54H54.12v13.54Z"/><path class="2cf69494-0b0d-4e5e-ac10-f20e759720c6" d="M54.19,102.4H17.63l0,19.9H10.16L10.22,69h7.44l0,19.86H54.2V102.4Z"/><path class="2cf69494-0b0d-4e5e-ac10-f20e759720c6" d="M39.91,63.69L39.08,50.51a10,10,0,0,0,6.4-4.83q2-3.64,2.05-9.81,0-6.54-1.81-9.86t-4.24-3.32a3.28,3.28,0,0,0-2.66,1.4A13.12,13.12,0,0,0,36.91,29Q36.37,31.34,35,39.8,33.2,50.69,30.61,55.08,27,61.26,21.75,61.26a8.82,8.82,0,0,1-6.29-2.91A18.62,18.62,0,0,1,11,50,49.48,49.48,0,0,1,9.5,36.78q0-12.63,3.65-19t9.7-6.7l0.38,13.54a7.24,7.24,0,0,0-4.88,3.73q-1.49,2.86-1.49,8.58a21.9,21.9,0,0,0,1.58,9.24q1,2.15,2.73,2.15t2.67-2q1.41-2.56,3-12.45A91.27,91.27,0,0,1,30,19.24a18.12,18.12,0,0,1,4.48-7.41,9.83,9.83,0,0,1,7-2.68,10,10,0,0,1,7.08,3.2,19.48,19.48,0,0,1,4.9,9.06A56.1,56.1,0,0,1,55,36q0,12.72-3.88,19.54A15.62,15.62,0,0,1,39.91,63.69Z"/></g></svg>