<svg id="1c1807cc-e8d2-43b0-b388-4d5c41888b39" data-name="Layer 1" xmlns="http://www.w3.org/2000/svg" viewBox="0 0 64.08 584.64"><defs><style>.be95dccc-3e32-4b0c-927c-51e0d8428ed1{fill:none;}</style></defs><title>#</title><g id="220d083d-5fbe-44a4-a7a3-1fe567209269" data-name="high"><path class="be95dccc-3e32-4b0c-927c-51e0d8428ed1" d="M53.7,575.52H9.7V562H27l0-26.54H9.74V521.9h44v13.54H34.5l0,26.54H53.72v13.54Z"/><path class="be95dccc-3e32-4b0c-927c-51e0d8428ed1" d="M53.77,508.31h-44V494.77h44v13.54Z"/><path class="be95dccc-3e32-4b0c-927c-51e0d8428ed1" d="M37.65,450.66H30.23l0-29.19H47.79q2.7,4.26,4.75,12.33a66.06,66.06,0,0,1,2,16.36,52.8,52.8,0,0,1-2.92,18.35q-2.9,7.83-8.3,11.76a19.48,19.48,0,0,1-11.73,3.93,18.68,18.68,0,0,1-12.21-4.39q-5.34-4.39-8.18-12.86a50.49,50.49,0,0,1-2.17-16.06q0-12.49,3.46-19.52t9.51-9l1.64,13.45a10.39,10.39,0,0,0-5.12,5.33,22.55,22.55,0,0,0-1.88,9.77q0,8.88,3.68,14.12t11,5.24q7.83,0,11.76-5.31T47,451a34.22,34.22,0,0,0-1.09-8.53,35.77,35.77,0,0,0-2.65-7.34H37.66v15.51Z"/><path class="be95dccc-3e32-4b0c-927c-51e0d8428ed1" d="M53.87,408.93h-44V395.38H27.19l0-26.54H9.9V355.3h44v13.54H34.66l0,26.54H53.88v13.54Z"/><path class="be95dccc-3e32-4b0c-927c-51e0d8428ed1" d="M53.93,340.93H10.29V327.39H46.53l0-33.67H54Z"/><path class="be95dccc-3e32-4b0c-927c-51e0d8428ed1" d="M54,284.47H10V270.93H54v13.54Z"/><path class="be95dccc-3e32-4b0c-927c-51e0d8428ed1" d="M37.86,226.82H30.45l0-29.19H48q2.7,4.26,4.75,12.33a66,66,0,0,1,2,16.36,52.78,52.78,0,0,1-2.92,18.35q-2.9,7.83-8.3,11.76a19.47,19.47,0,0,1-11.73,3.93A18.68,18.68,0,0,1,19.65,256q-5.34-4.39-8.18-12.86A50.51,50.51,0,0,1,9.29,227q0-12.49,3.46-19.52t9.51-9l1.64,13.45a10.39,10.39,0,0,0-5.12,5.33A22.56,22.56,0,0,0,16.88,227q0,8.88,3.68,14.12t11,5.24q7.83,0,11.76-5.31t3.93-13.91a34.27,34.27,0,0,0-1.09-8.53,35.77,35.77,0,0,0-2.65-7.34H37.88Z"/><path class="be95dccc-3e32-4b0c-927c-51e0d8428ed1" d="M54.08,185.09h-44V171.55H27.41l0-26.54H10.12V131.47h44V145H34.88l0,26.54H54.1v13.54Z"/><path class="be95dccc-3e32-4b0c-927c-51e0d8428ed1" d="M54.17,102.37H17.6l0,19.9H10.14L10.19,69h7.45l0,19.86H54.18v13.54Z"/><path class="be95dccc-3e32-4b0c-927c-51e0d8428ed1" d="M39.89,63.66L39.06,50.48a10,10,0,0,0,6.4-4.83q2-3.64,2.05-9.81,0-6.54-1.81-9.86t-4.24-3.32a3.28,3.28,0,0,0-2.66,1.4,13.11,13.11,0,0,0-1.91,4.87Q36.35,31.31,35,39.77q-1.78,10.89-4.37,15.28Q27,61.23,21.73,61.23a8.82,8.82,0,0,1-6.29-2.91A18.61,18.61,0,0,1,11,50a49.48,49.48,0,0,1-1.52-13.2q0-12.63,3.65-19t9.7-6.7L23.2,24.58a7.24,7.24,0,0,0-4.88,3.73q-1.49,2.86-1.49,8.58a21.89,21.89,0,0,0,1.58,9.24q1,2.15,2.73,2.15t2.67-2q1.41-2.56,3-12.45A91.34,91.34,0,0,1,29.95,19.2a18.11,18.11,0,0,1,4.48-7.41,9.83,9.83,0,0,1,7-2.68,10,10,0,0,1,7.08,3.2,19.48,19.48,0,0,1,4.9,9.06A56.16,56.16,0,0,1,55,36q0,12.72-3.88,19.54A15.62,15.62,0,0,1,39.89,63.66Z"/></g></svg>