<svg id="1ae5ff8d-1888-4faf-9335-854942afac4c" data-name="Layer 1" xmlns="http://www.w3.org/2000/svg" viewBox="0 0 64.08 638.64"><defs><style>.\38 4d297ee-3379-43b3-9691-00a32154c7ab{fill:none;}</style></defs><title>#</title><g id="77817b59-9d54-46a3-b652-98569992363e" data-name="free"><path class="84d297ee-3379-43b3-9691-00a32154c7ab" d="M53.76,629.82h-44l0-46h7.45l0,32.44H27.63l0-28H35.1l0,28h18.7v13.54Z"/><path class="84d297ee-3379-43b3-9691-00a32154c7ab" d="M53.82,572.62h-44l0-28.5q0-10.75,1.2-15.63a15.73,15.73,0,0,1,4.23-7.8,9.72,9.72,0,0,1,15.11,1.51q3.22,4.44,4.05,13.27a33.48,33.48,0,0,1,3.7-7.25,57.51,57.51,0,0,1,7.15-7.71l8.59-8.19,0,16.2-9.58,9.79a72.06,72.06,0,0,0-6.48,7.14A11.69,11.69,0,0,0,36,549.52a33.45,33.45,0,0,0-.5,6.82v2.75H53.83v13.54ZM28.43,559.08v-10q0-9.75-.53-12.17a7.78,7.78,0,0,0-1.86-3.8,4.39,4.39,0,0,0-3.3-1.37,4.29,4.29,0,0,0-3.59,1.81,10.23,10.23,0,0,0-1.73,5.1q-0.15,1.65-.16,9.88v10.57H28.43Z"/><path class="84d297ee-3379-43b3-9691-00a32154c7ab" d="M53.88,505h-44l0-49.74h7.45l0,36.19h9.76l0-33.68h7.41l0,33.68h12l0-37.47h7.42Z"/><path class="84d297ee-3379-43b3-9691-00a32154c7ab" d="M53.94,442.49h-44l0-49.74h7.44l0,36.19h9.76l0-33.68H34.6l0,33.68h12l0-37.47H54Z"/><path class="84d297ee-3379-43b3-9691-00a32154c7ab" d="M39.68,383.42l-0.83-13.18a10,10,0,0,0,6.4-4.83q2-3.64,2.05-9.81,0-6.54-1.81-9.86t-4.25-3.32a3.28,3.28,0,0,0-2.66,1.4,13.12,13.12,0,0,0-1.91,4.87q-0.54,2.38-1.93,10.84Q33,370.43,30.39,374.82,26.75,381,21.52,381a8.82,8.82,0,0,1-6.29-2.91,18.61,18.61,0,0,1-4.45-8.37,49.44,49.44,0,0,1-1.52-13.2q0-12.63,3.65-19t9.7-6.7L23,344.35a7.23,7.23,0,0,0-4.88,3.73q-1.49,2.86-1.49,8.58a21.9,21.9,0,0,0,1.58,9.24q1,2.15,2.73,2.15,1.56,0,2.67-2,1.41-2.56,3-12.44A91.42,91.42,0,0,1,29.75,339a18.12,18.12,0,0,1,4.48-7.41,9.83,9.83,0,0,1,7-2.68,10,10,0,0,1,7.08,3.2,19.47,19.47,0,0,1,4.9,9.06,56.2,56.2,0,0,1,1.59,14.6q0,12.72-3.88,19.54A15.62,15.62,0,0,1,39.68,383.42Z"/><path class="84d297ee-3379-43b3-9691-00a32154c7ab" d="M54.08,302.39H17.52l0,19.9H10.06L10.11,269h7.45l0,19.86H54.09v13.54Z"/><path class="84d297ee-3379-43b3-9691-00a32154c7ab" d="M54.14,242.63H35.62L10.11,267.2l0-15.88,17.43-15.79-17.4-15.47,0-15.6,25.52,24.66H54.15v13.5Z"/><path class="84d297ee-3379-43b3-9691-00a32154c7ab" d="M54.18,197.38H10.54V183.84H46.78l0-33.67h7.42Z"/><path class="84d297ee-3379-43b3-9691-00a32154c7ab" d="M54.24,140.51h-44l0-49.74h7.44l0,36.19h9.76l0-33.68h7.42l0,33.68h12l0-37.47h7.42Z"/><path class="84d297ee-3379-43b3-9691-00a32154c7ab" d="M54.35,29.6H45.49l0,27.45H38.08L10.16,27.95V17.15H38.09V8.82h7.41v8.33h8.86V29.6Zm-16.27,0H23L38.06,45Z"/></g></svg>