<svg id="96c999a8-ee57-4487-b581-b47b16761286" data-name="Layer 1" xmlns="http://www.w3.org/2000/svg" viewBox="0 0 64.08 668.16"><defs><style>.\30 d382073-aeb9-4881-9cee-e314002f61b2{fill:none;}</style></defs><title>#</title><g id="a647e4bd-eac6-433d-9add-e00f9d39bfb1" data-name="i love kanye"><path class="0d382073-aeb9-4881-9cee-e314002f61b2" d="M53.91,659.17H9.9V645.63h44v13.54Z"/><path class="0d382073-aeb9-4881-9cee-e314002f61b2" d="M54,606.33H10.31V592.78H46.56l0-33.67H54Z"/><path class="0d382073-aeb9-4881-9cee-e314002f61b2" d="M32.28,552.2A19.77,19.77,0,0,1,21,549.13a22.92,22.92,0,0,1-6-6.25,29.12,29.12,0,0,1-4-8.67,54.22,54.22,0,0,1-1.73-14.46q0-14.82,6.06-23.72a19.19,19.19,0,0,1,16.79-8.9A19.07,19.07,0,0,1,48.8,496q6,8.83,6,23.61,0,15-6,23.79A18.91,18.91,0,0,1,32.28,552.2Zm-0.29-14q7.48,0,11.34-5.26t3.87-13.36q0-8.1-3.81-13.29t-11.48-5.19q-7.56,0-11.29,5.06t-3.74,13.43q0,8.37,3.75,13.5T32,538.24Z"/><path class="0d382073-aeb9-4881-9cee-e314002f61b2" d="M54.1,459.45l-44,24V468.74l32.59-17L10.12,435.34V421l44,24v14.46Z"/><path class="0d382073-aeb9-4881-9cee-e314002f61b2" d="M54.15,414.06h-44l0-49.74h7.45l0,36.19h9.75l0-33.68H34.8l0,33.68h12l0-37.47H54.2Z"/><path class="0d382073-aeb9-4881-9cee-e314002f61b2" d="M54.23,325.34h-44V311.8H29.78L10.27,284.44l0-18.21L27.4,291.48l26.89-26.63,0,17.52L33.61,300.82l7.34,11h13.3v13.54Z"/><path class="0d382073-aeb9-4881-9cee-e314002f61b2" d="M54.36,197.36V212.1l-10,5.86,0,26.81,10,5.54v14.37l-44-26.13V224.22ZM36.92,222.3l-16.34,9.24,16.32,9.06Z"/><path class="0d382073-aeb9-4881-9cee-e314002f61b2" d="M54.37,190h-44V176.87l29.42-27.45H10.4V136.83h44v13.59l-28.72,27h28.7V190Z"/><path class="0d382073-aeb9-4881-9cee-e314002f61b2" d="M54.45,104.89H35.93L10.42,129.46l0-15.88L27.86,97.8,10.46,82.33l0-15.6L36,91.39H54.46v13.5Z"/><path class="0d382073-aeb9-4881-9cee-e314002f61b2" d="M54.49,60h-44l0-49.74H18l0,36.19H27.7l0-33.68h7.42l0,33.68h12L47.13,9h7.41Z"/></g></svg>