<svg id="b13c0e5a-7a49-4499-82b4-76bc198b039f" data-name="Layer 1" xmlns="http://www.w3.org/2000/svg" viewBox="0 0 64.08 344.88"><defs><style>.\35 076de20-067a-437f-947b-74ecd31c5b68{fill:none;}</style></defs><title>#</title><g id="4c9a7364-b80f-4c70-8453-f37416eb41ef" data-name="waves"><path class="5076de20-067a-437f-947b-74ecd31c5b68" d="M53.75,319.73l-44,16V321.88L40,311.76,9.76,299.5l0-16.11,30.75-11.76L9.8,261.34V247.71l44,16.29v14.37L20.88,291.72,53.77,305v14.69Z"/><path class="5076de20-067a-437f-947b-74ecd31c5b68" d="M53.88,185.48v14.73l-10,5.86,0,26.81,10,5.54v14.37l-44-26.13V212.34ZM36.45,210.42l-16.34,9.24,16.32,9.06Z"/><path class="5076de20-067a-437f-947b-74ecd31c5b68" d="M53.9,168.14l-44,24V177.43l32.59-17L9.92,144V129.66l44,24v14.46Z"/><path class="5076de20-067a-437f-947b-74ecd31c5b68" d="M53.94,122.75h-44L10,73h7.45l0,36.19h9.76l0-33.68H34.6l0,33.68h12l0-37.47H54Z"/><path class="5076de20-067a-437f-947b-74ecd31c5b68" d="M39.68,63.68L38.85,50.5a10,10,0,0,0,6.4-4.83q2-3.64,2.05-9.81,0-6.54-1.81-9.86t-4.24-3.32a3.28,3.28,0,0,0-2.66,1.4A13.11,13.11,0,0,0,36.69,29q-0.54,2.38-1.93,10.84Q33,50.68,30.39,55.08q-3.64,6.18-8.86,6.18a8.82,8.82,0,0,1-6.29-2.91A18.6,18.6,0,0,1,10.79,50a49.44,49.44,0,0,1-1.52-13.2q0-12.63,3.65-19t9.7-6.7L23,24.6a7.23,7.23,0,0,0-4.88,3.73q-1.49,2.86-1.49,8.58a21.9,21.9,0,0,0,1.58,9.24q1,2.15,2.73,2.15,1.56,0,2.67-2,1.42-2.56,3-12.45a91.42,91.42,0,0,1,3.18-14.62,18.12,18.12,0,0,1,4.48-7.41,9.83,9.83,0,0,1,7-2.68,10,10,0,0,1,7.08,3.2,19.47,19.47,0,0,1,4.9,9.06A56.16,56.16,0,0,1,54.81,36q0,12.72-3.88,19.54A15.62,15.62,0,0,1,39.68,63.68Z"/></g></svg>