<svg id="9961acf4-5e31-473f-a5b5-719ef6237a94" data-name="Layer 1" xmlns="http://www.w3.org/2000/svg" viewBox="0 0 64.08 696.96"><defs><style>.a5d20225-4cc3-4586-9391-18ba720cac4b{fill:none;}</style></defs><title>#</title><g id="0dc6f997-9008-4702-b866-2f214efaf2b8" data-name="real friends"><path class="a5d20225-4cc3-4586-9391-18ba720cac4b" d="M53.39,688.12h-44l0-28.51q0-10.75,1.2-15.63a15.73,15.73,0,0,1,4.22-7.8A9.72,9.72,0,0,1,30,637.7Q33.17,642.14,34,651a33.53,33.53,0,0,1,3.7-7.25A57.44,57.44,0,0,1,44.86,636l8.59-8.19,0,16.2-9.59,9.79a72.32,72.32,0,0,0-6.48,7.14A11.71,11.71,0,0,0,35.54,665a33.47,33.47,0,0,0-.5,6.82v2.75H53.4v13.54ZM28,674.58v-10q0-9.75-.53-12.17a7.78,7.78,0,0,0-1.86-3.8,4.39,4.39,0,0,0-3.3-1.37A4.29,4.29,0,0,0,18.74,649a10.23,10.23,0,0,0-1.73,5.1q-0.15,1.65-.16,9.88v10.57H28Z"/><path class="a5d20225-4cc3-4586-9391-18ba720cac4b" d="M53.46,620.5h-44l0-49.74h7.44l0,36.19h9.75l0-33.68h7.42l0,33.68h12l0-37.47h7.42Z"/><path class="a5d20225-4cc3-4586-9391-18ba720cac4b" d="M53.58,497.51v14.73l-10,5.86,0,26.81,10,5.54v14.37l-44-26.13V524.36ZM36.14,522.44L19.8,531.68l16.32,9.06Z"/><path class="a5d20225-4cc3-4586-9391-18ba720cac4b" d="M53.58,490H9.94V476.41H46.18l0-33.68h7.42Z"/><path class="a5d20225-4cc3-4586-9391-18ba720cac4b" d="M53.66,408.65h-44l0-46h7.44l0,32.44H27.53l0-28H35l0,28h18.7v13.54Z"/><path class="a5d20225-4cc3-4586-9391-18ba720cac4b" d="M53.72,351.45h-44l0-28.51q0-10.75,1.2-15.62a15.72,15.72,0,0,1,4.22-7.8A9.72,9.72,0,0,1,30.28,301q3.22,4.44,4.05,13.27A33.48,33.48,0,0,1,38,307a57.44,57.44,0,0,1,7.15-7.71l8.59-8.19,0,16.2-9.59,9.79a72.1,72.1,0,0,0-6.48,7.14,11.69,11.69,0,0,0-1.83,4.07,33.47,33.47,0,0,0-.5,6.82v2.75H53.73v13.54ZM28.34,337.91v-10q0-9.75-.53-12.17a7.77,7.77,0,0,0-1.86-3.8,4.39,4.39,0,0,0-3.3-1.37,4.29,4.29,0,0,0-3.59,1.81,10.23,10.23,0,0,0-1.73,5.1q-0.15,1.65-.16,9.88v10.57H28.34Z"/><path class="a5d20225-4cc3-4586-9391-18ba720cac4b" d="M53.79,284.24h-44V270.7h44v13.54Z"/><path class="a5d20225-4cc3-4586-9391-18ba720cac4b" d="M53.81,257.79h-44l0-49.74H17.3l0,36.19H27l0-33.68h7.42l0,33.68h12l0-37.47h7.41Z"/><path class="a5d20225-4cc3-4586-9391-18ba720cac4b" d="M53.87,195.15h-44V182l29.41-27.45H9.91V141.94h44v13.59l-28.72,27h28.7v12.58Z"/><path class="a5d20225-4cc3-4586-9391-18ba720cac4b" d="M9.93,127.66l0-24.75a72.9,72.9,0,0,1,.85-12.77A26.36,26.36,0,0,1,14.87,80,19.68,19.68,0,0,1,22,73.63a22.34,22.34,0,0,1,10.4-2.2,19.94,19.94,0,0,1,9.36,2.06,20.19,20.19,0,0,1,7.77,7.18A28.76,28.76,0,0,1,53,90.19a61.39,61.39,0,0,1,.92,12l0,25.49h-44Zm7.46-13.54H46.54V104a55.66,55.66,0,0,0-.41-8.19,15.62,15.62,0,0,0-1.83-5.47,9.26,9.26,0,0,0-4.24-3.55A19.46,19.46,0,0,0,32,85.43a17.88,17.88,0,0,0-7.84,1.37,10.38,10.38,0,0,0-4.27,3.84,16.15,16.15,0,0,0-2.08,6.27A93,93,0,0,0,17.4,108v6.09Z"/><path class="a5d20225-4cc3-4586-9391-18ba720cac4b" d="M39.68,63.38L38.86,50.2a10,10,0,0,0,6.4-4.83q2-3.64,2.05-9.81,0-6.54-1.81-9.86t-4.24-3.32a3.28,3.28,0,0,0-2.66,1.4,13.12,13.12,0,0,0-1.91,4.87Q36.14,31,34.75,39.49,33,50.38,30.39,54.77,26.75,61,21.52,61A8.82,8.82,0,0,1,15.24,58a18.61,18.61,0,0,1-4.45-8.37,49.48,49.48,0,0,1-1.52-13.2q0-12.63,3.65-19t9.7-6.7L23,24.3A7.24,7.24,0,0,0,18.12,28q-1.49,2.86-1.49,8.58a21.9,21.9,0,0,0,1.58,9.24q1,2.15,2.73,2.15t2.67-2q1.41-2.56,3-12.45a91.19,91.19,0,0,1,3.18-14.62,18.12,18.12,0,0,1,4.48-7.41,9.83,9.83,0,0,1,7-2.68A10,10,0,0,1,48.32,12a19.48,19.48,0,0,1,4.9,9.06,56.15,56.15,0,0,1,1.59,14.59q0,12.72-3.88,19.54A15.62,15.62,0,0,1,39.68,63.38Z"/></g></svg>