<svg id="1247e78e-e034-4319-810a-a3a1875b7a06" data-name="Layer 1" xmlns="http://www.w3.org/2000/svg" viewBox="0 0 64.08 412.56"><defs><style>.\39 8da354f-cb47-47e5-b37c-e4791a5bdec0{fill:none;}</style></defs><title>#</title><g id="d2281237-f22a-4e75-9d18-324216971bb8" data-name="wolves"><path class="98da354f-cb47-47e5-b37c-e4791a5bdec0" d="M53.8,387.38l-44,16V389.53L40,379.42,9.82,367.16l0-16.11,30.75-11.76L9.85,329V315.36l44,16.29V346L20.93,359.38l32.89,13.32v14.69Z"/><path class="98da354f-cb47-47e5-b37c-e4791a5bdec0" d="M32.14,311.2a19.77,19.77,0,0,1-11.28-3.07,22.89,22.89,0,0,1-6-6.25,29.1,29.1,0,0,1-4-8.67,54.22,54.22,0,0,1-1.73-14.46q0-14.82,6.06-23.72A19.2,19.2,0,0,1,32,246.13,19.07,19.07,0,0,1,48.66,255q6,8.83,6,23.61,0,15-6,23.79A18.91,18.91,0,0,1,32.14,311.2Zm-0.29-14q7.48,0,11.34-5.26t3.87-13.36q0-8.1-3.81-13.29t-11.48-5.19q-7.56,0-11.29,5.06t-3.73,13.43q0,8.37,3.75,13.5T31.86,297.24Z"/><path class="98da354f-cb47-47e5-b37c-e4791a5bdec0" d="M54,235.2H10.31V221.65H46.55l0-33.68H54Z"/><path class="98da354f-cb47-47e5-b37c-e4791a5bdec0" d="M54,168.16l-44,24V177.45l32.59-17L10,144.05V129.68l44,24v14.46Z"/><path class="98da354f-cb47-47e5-b37c-e4791a5bdec0" d="M54.06,122.78h-44L10.1,73h7.44l0,36.19h9.76l0-33.68h7.41l0,33.68h12l0-37.47h7.42Z"/><path class="98da354f-cb47-47e5-b37c-e4791a5bdec0" d="M39.8,63.71L39,50.53a10,10,0,0,0,6.4-4.83q2-3.64,2.05-9.81,0-6.54-1.81-9.86t-4.24-3.32a3.28,3.28,0,0,0-2.66,1.4A13.1,13.1,0,0,0,36.8,29q-0.54,2.38-1.93,10.84Q33.09,50.71,30.5,55.1q-3.64,6.18-8.86,6.18a8.82,8.82,0,0,1-6.29-2.91A18.61,18.61,0,0,1,10.91,50,49.44,49.44,0,0,1,9.39,36.8q0-12.63,3.65-19t9.7-6.7l0.38,13.54a7.23,7.23,0,0,0-4.88,3.73q-1.49,2.86-1.49,8.58a21.89,21.89,0,0,0,1.58,9.24q1,2.15,2.73,2.15,1.56,0,2.67-2,1.42-2.56,3-12.45a91.34,91.34,0,0,1,3.18-14.62,18.13,18.13,0,0,1,4.48-7.41,9.83,9.83,0,0,1,7-2.68,10,10,0,0,1,7.08,3.2,19.48,19.48,0,0,1,4.9,9.06A56.15,56.15,0,0,1,54.93,36q0,12.72-3.88,19.54A15.62,15.62,0,0,1,39.8,63.71Z"/></g></svg>