<svg version="1.1" id="a7f7b4ed-b66c-434d-a477-364b2d55a140"
	 xmlns="http://www.w3.org/2000/svg" xmlns:xlink="http://www.w3.org/1999/xlink" x="0px" y="0px" viewBox="0 0 64.1 781.2"
	 style="enable-background:new 0 0 64.1 781.2;" xml:space="preserve">
<title>#</title>
<g id="ed706e5b-58e7-42db-b3ab-6fa1dea76f8f">
	<path class="st0" d="M53.5,772.3h-44v-46H17v32.4h10.4v-28h7.4v28h18.7L53.5,772.3L53.5,772.3z"/>
	<path class="st0" d="M53.6,715.1h-44v-28.5c0-7.2,0.4-12.4,1.2-15.6c0.6-3,2.1-5.7,4.2-7.8c3.8-3.8,9.9-3.9,13.7-0.2
		c0.5,0.5,1,1.1,1.4,1.7c2.1,3,3.5,7.4,4,13.3c0.9-2.6,2.2-5,3.7-7.2c2.2-2.8,4.6-5.3,7.2-7.7l8.6-8.2V671l-9.6,9.8
		c-2.3,2.2-4.5,4.6-6.5,7.1c-0.9,1.2-1.5,2.6-1.8,4.1c-0.4,2.3-0.6,4.5-0.5,6.8v2.8h18.4L53.6,715.1L53.6,715.1z M28.2,701.5v-10
		c0-6.5-0.2-10.6-0.5-12.2c-0.3-1.4-0.9-2.7-1.9-3.8c-0.9-0.9-2.1-1.4-3.3-1.4c-1.4,0-2.8,0.7-3.6,1.8c-1,1.5-1.6,3.3-1.7,5.1
		c-0.1,1.1-0.2,4.4-0.2,9.9v10.6L28.2,701.5L28.2,701.5z"/>
	<path class="st0" d="M53.7,587v14.7l-10,5.9v26.8l10,5.5v14.4l-44-26.1v-14.4L53.7,587z M36.3,611.9l-16.3,9.2l16.3,9.1L36.3,611.9
		z"/>
	<path class="st0" d="M53.7,579.6h-44v-13.2L39.1,539H9.8v-12.6h44V540L25,567.1h28.7L53.7,579.6L53.7,579.6z"/>
	<path class="st0" d="M53.8,511.9h-44v-13.5h19.5L9.8,471v-18.2L27,478.1l26.9-26.6v17.5l-20.7,18.5l7.3,11h13.3L53.8,511.9
		L53.8,511.9z"/>
	<path class="st0" d="M10,444.8V432h6c2-0.1,3.9,0.3,5.8,1c1.6,0.8,2.9,2.1,3.8,3.6c1.2,2.1,2.1,4.4,2.6,6.8l-3.5,2.5
		c-0.3-2-1.1-3.9-2.3-5.5c-1-1.1-2.5-1.7-4-1.7v6.2L10,444.8L10,444.8z"/>
	<path class="st0" d="M39.6,421.8l-0.8-13.2c2.7-0.6,5-2.4,6.4-4.8c1.3-2.4,2-5.7,2-9.8c0-4.4-0.6-7.6-1.8-9.9
		c-1.2-2.2-2.6-3.3-4.2-3.3c-1.1,0-2.1,0.5-2.7,1.4c-1,1.5-1.6,3.1-1.9,4.9c-0.4,1.6-1,5.2-1.9,10.8c-1.2,7.3-2.6,12.4-4.4,15.3
		c-2.4,4.1-5.4,6.2-8.9,6.2c-2.4-0.1-4.7-1.1-6.3-2.9c-2.2-2.4-3.7-5.2-4.4-8.4c-1.1-4.3-1.6-8.8-1.5-13.2c0-8.4,1.2-14.8,3.6-19
		c2.4-4.2,5.7-6.5,9.7-6.7l0.4,13.5c-2.1,0.5-3.9,1.8-4.9,3.7c-1,1.9-1.5,4.8-1.5,8.6c-0.1,3.2,0.4,6.3,1.6,9.2
		c0.7,1.4,1.6,2.1,2.7,2.1c1,0,1.9-0.7,2.7-2c0.9-1.7,1.9-5.9,3-12.4c0.7-5,1.7-9.8,3.2-14.6c0.9-2.8,2.4-5.3,4.4-7.4
		c1.9-1.8,4.4-2.7,7-2.7c2.7,0.1,5.2,1.2,7.1,3.2c2.4,2.5,4.1,5.7,4.9,9.1c1.2,4.8,1.7,9.7,1.6,14.6c0,8.5-1.3,15-3.9,19.5
		C48.5,418,44.4,421,39.6,421.8z"/>
	<path class="st0" d="M54,314.8H17.4v19.9H10v-53.3h7.5v19.9H54V314.8L54,314.8z"/>
	<path class="st0" d="M54,272.6H10v-28.5c0-7.2,0.4-12.4,1.2-15.6c0.6-3,2.1-5.7,4.2-7.8c3.8-3.8,9.9-3.9,13.7-0.2
		c0.5,0.5,1,1.1,1.4,1.7c2.1,3,3.5,7.4,4,13.3c0.9-2.6,2.2-5,3.7-7.2c2.1-2.8,4.5-5.4,7.2-7.7l8.6-8.2v16.2l-9.6,9.8
		c-2.3,2.2-4.4,4.6-6.4,7.2c-0.9,1.2-1.5,2.6-1.8,4.1c-0.4,2.3-0.6,4.5-0.5,6.8v2.7H54V272.6L54,272.6z M28.6,259v-10
		c0-6.5-0.2-10.6-0.5-12.2c-0.3-1.4-0.9-2.7-1.9-3.8c-0.9-0.9-2.1-1.4-3.3-1.4c-1.4,0-2.8,0.6-3.6,1.8c-1,1.5-1.6,3.3-1.7,5.1
		c-0.1,1.1-0.2,4.4-0.2,9.9V259H28.6z"/>
	<path class="st0" d="M54.2,144.5v14.7l-10,5.9v26.8l10,5.5v14.4l-44-26.1v-14.3L54.2,144.5z M36.7,169.4l-16.3,9.2l16.3,9.1
		L36.7,169.4z"/>
	<path class="st0" d="M38,94.4l2.7-13.1c4.7,1.9,8.5,5.5,10.7,10c2.3,4.7,3.5,10.6,3.5,17.8c0,8.9-2,16.2-6,22
		c-3.6,5.5-9.8,8.8-16.4,8.6c-7.3,0-13-2.9-17.1-8.6c-4-5.8-6.1-13.3-6-22.7c0-8.2,1.6-14.9,4.8-20c1.9-3.1,4.8-5.5,8.1-6.9
		l2.1,13.4c-2.4,0.9-4.3,2.7-5.4,5c-1.4,2.9-2.1,6-2,9.2c0,5,1.2,9,3.5,12.1c2.3,3.1,6.1,4.6,11.4,4.6c5.6,0,9.5-1.5,11.9-4.6
		c2.4-3.1,3.5-7,3.5-11.9c0.1-3.2-0.7-6.4-2.2-9.3C43.5,97.3,41,95.3,38,94.4z"/>
	<path class="st0" d="M54.2,69.4h-44V55.9h19.5L10.3,28.5V10.3l17.1,25.3L54.3,8.9v17.5L33.6,44.9l7.3,11h13.3L54.2,69.4L54.2,69.4z
		"/>
</g>
</svg>
