<svg id="0ecf312a-a3e3-42eb-a6bf-664661217346" data-name="Layer 1" xmlns="http://www.w3.org/2000/svg" viewBox="0 0 65.52 2082.96"><defs><style>.\31 465fde9-0e1b-489f-ae85-56b826377364{fill:none;}</style></defs><title>#</title><g id="c9fec92f-789f-41d1-8373-34aa423e5319" data-name="Silver"><path class="1465fde9-0e1b-489f-ae85-56b826377364" d="M39.47,2073.86l-0.83-13.18a10,10,0,0,0,6.4-4.83q2-3.64,2-9.81,0-6.54-1.81-9.86T41,2032.86a3.28,3.28,0,0,0-2.66,1.4,13.11,13.11,0,0,0-1.91,4.87q-0.54,2.38-1.93,10.84-1.78,10.89-4.37,15.28-3.64,6.18-8.86,6.18a8.82,8.82,0,0,1-6.29-2.91,18.61,18.61,0,0,1-4.45-8.37A49.48,49.48,0,0,1,9.05,2047q0-12.63,3.65-19t9.7-6.7l0.38,13.54a7.24,7.24,0,0,0-4.88,3.73q-1.49,2.86-1.49,8.58a21.9,21.9,0,0,0,1.58,9.24q1,2.15,2.73,2.15t2.67-2q1.41-2.56,3-12.45a91.42,91.42,0,0,1,3.18-14.62A18.12,18.12,0,0,1,34,2022a9.83,9.83,0,0,1,7-2.68,10,10,0,0,1,7.08,3.2,19.47,19.47,0,0,1,4.9,9.06,56.16,56.16,0,0,1,1.59,14.6q0,12.72-3.88,19.54A15.62,15.62,0,0,1,39.47,2073.86Z"/><path class="1465fde9-0e1b-489f-ae85-56b826377364" d="M53.85,2008.34h-44v-13.54h44v13.54Z"/><path class="1465fde9-0e1b-489f-ae85-56b826377364" d="M53.88,1982.3h-44v-13.54h44v13.54Z"/><path class="1465fde9-0e1b-489f-ae85-56b826377364" d="M53.9,1956.27h-44v-13.54h44v13.54Z"/><path class="1465fde9-0e1b-489f-ae85-56b826377364" d="M53.93,1930.23h-44v-13.54h44v13.54Z"/><path class="1465fde9-0e1b-489f-ae85-56b826377364" d="M54,1904.2h-44v-13.54H54v13.54Z"/><path class="1465fde9-0e1b-489f-ae85-56b826377364" d="M54,1878.16H10v-13.54H54v13.54Z"/><path class="1465fde9-0e1b-489f-ae85-56b826377364" d="M54,1852.13H10v-13.54H54v13.54Z"/><path class="1465fde9-0e1b-489f-ae85-56b826377364" d="M54,1826.09H10v-13.54H54v13.54Z"/><path class="1465fde9-0e1b-489f-ae85-56b826377364" d="M54.05,1800.06H10v-13.54h44v13.54Z"/><path class="1465fde9-0e1b-489f-ae85-56b826377364" d="M54.08,1773.25H10.43V1759.7H46.68l0-33.68h7.42Z"/><path class="1465fde9-0e1b-489f-ae85-56b826377364" d="M54.15,1706.21l-44,24,0-14.69,32.59-17L10.16,1682.1v-14.37l44,24v14.46Z"/><path class="1465fde9-0e1b-489f-ae85-56b826377364" d="M54.19,1660.83h-44l0-49.74h7.45l0,36.19H27.4l0-33.68h7.42l0,33.68h12l0-37.47h7.41Z"/><path class="1465fde9-0e1b-489f-ae85-56b826377364" d="M54.25,1598.28h-44l0-28.51q0-10.75,1.2-15.63a15.72,15.72,0,0,1,4.22-7.8,9.72,9.72,0,0,1,15.11,1.51q3.22,4.44,4.05,13.27a33.44,33.44,0,0,1,3.7-7.25,57.44,57.44,0,0,1,7.15-7.71l8.59-8.19,0,16.2L44.71,1564a72.19,72.19,0,0,0-6.48,7.14,11.71,11.71,0,0,0-1.83,4.07,33.47,33.47,0,0,0-.5,6.82v2.75H54.26v13.54Zm-25.38-13.54v-10q0-9.75-.53-12.17a7.8,7.8,0,0,0-1.86-3.8,4.39,4.39,0,0,0-3.3-1.37,4.29,4.29,0,0,0-3.59,1.81,10.24,10.24,0,0,0-1.73,5.1q-0.15,1.65-.16,9.88v10.57H28.87Z"/><path class="1465fde9-0e1b-489f-ae85-56b826377364" d="M40,1508l-0.83-13.18a10,10,0,0,0,6.4-4.83q2-3.64,2.05-9.81,0-6.54-1.81-9.86t-4.25-3.32a3.28,3.28,0,0,0-2.66,1.4,13.11,13.11,0,0,0-1.91,4.87q-0.54,2.38-1.93,10.84-1.78,10.89-4.37,15.28-3.64,6.18-8.86,6.18a8.82,8.82,0,0,1-6.29-2.91,18.61,18.61,0,0,1-4.45-8.37,49.48,49.48,0,0,1-1.52-13.2q0-12.63,3.65-19t9.7-6.7L23.34,1469a7.24,7.24,0,0,0-4.88,3.73q-1.49,2.86-1.49,8.58a21.92,21.92,0,0,0,1.58,9.24q1,2.15,2.73,2.15t2.67-2q1.41-2.56,3-12.45a91.42,91.42,0,0,1,3.18-14.62,18.12,18.12,0,0,1,4.48-7.41,9.83,9.83,0,0,1,7-2.68,10,10,0,0,1,7.08,3.2,19.47,19.47,0,0,1,4.9,9.06,56.2,56.2,0,0,1,1.59,14.6q0,12.72-3.88,19.54A15.62,15.62,0,0,1,40,1508Z"/><path class="1465fde9-0e1b-489f-ae85-56b826377364" d="M10.4,1442.21v-13.54H34.25a32.62,32.62,0,0,0,7.35-.5,7.55,7.55,0,0,0,4.34-4.14,20.26,20.26,0,0,0,1.64-8.95q0-5.77-1.54-8.69a6.33,6.33,0,0,0-3.79-3.52,32.75,32.75,0,0,0-7.47-.59H10.44v-13.54H33.56q7.92,0,11.2,1.1a11.41,11.41,0,0,1,5.52,4,22.7,22.7,0,0,1,3.58,7.89,50.83,50.83,0,0,1,1.32,12.9q0,9.61-1.47,14.57a22.53,22.53,0,0,1-3.79,7.85,11.45,11.45,0,0,1-4.88,3.8q-3.78,1.33-11.17,1.33H10.4Z"/><path class="1465fde9-0e1b-489f-ae85-56b826377364" d="M54.47,1374.4h-44l0-28.51q0-10.75,1.2-15.63a15.74,15.74,0,0,1,4.23-7.8A9.72,9.72,0,0,1,31,1324q3.22,4.44,4.05,13.27a33.48,33.48,0,0,1,3.7-7.25,57.44,57.44,0,0,1,7.15-7.71l8.59-8.19,0,16.2-9.58,9.79a72.19,72.19,0,0,0-6.48,7.14,11.69,11.69,0,0,0-1.83,4.07,33.52,33.52,0,0,0-.5,6.82v2.75H54.48v13.54Zm-25.38-13.54v-10q0-9.75-.53-12.17a7.77,7.77,0,0,0-1.86-3.8,4.39,4.39,0,0,0-3.3-1.37,4.29,4.29,0,0,0-3.59,1.81,10.23,10.23,0,0,0-1.73,5.1q-0.15,1.65-.16,9.88v10.57H29.09Z"/><path class="1465fde9-0e1b-489f-ae85-56b826377364" d="M54.54,1306.68h-44l0-46H18l0,32.44H28.4l0-28h7.44l0,28h18.7v13.54Z"/><path class="1465fde9-0e1b-489f-ae85-56b826377364" d="M54.59,1249.44h-44l0-46h7.44l0,32.44H28.46l0-28h7.44l0,28h18.7v13.54Z"/><path class="1465fde9-0e1b-489f-ae85-56b826377364" d="M54.65,1192.2h-44l0-46h7.45l0,32.44H28.52l0-28H36l0,28h18.7v13.54Z"/><path class="1465fde9-0e1b-489f-ae85-56b826377364" d="M54.71,1135h-44l0-46h7.45l0,32.44H28.57l0-28H36l0,28h18.7V1135Z"/><path class="1465fde9-0e1b-489f-ae85-56b826377364" d="M54.76,1077.81h-44l0-49.74h7.44l0,36.19H28l0-33.68h7.41l0,33.68h12l0-37.47h7.42Z"/><path class="1465fde9-0e1b-489f-ae85-56b826377364" d="M54.82,1015.31h-44l0-49.74h7.45l0,36.19H28l0-33.68h7.42l0,33.68h12l0-37.47h7.42Z"/><path class="1465fde9-0e1b-489f-ae85-56b826377364" d="M54.88,952.81h-44l0-49.74h7.45l0,36.19h9.76l0-33.68h7.42l0,33.68h12l0-37.47h7.41Z"/><path class="1465fde9-0e1b-489f-ae85-56b826377364" d="M54.95,890.3h-44l0-49.74h7.44l0,36.19h9.76l0-33.68H35.6l0,33.68h12l0-37.47H55Z"/><path class="1465fde9-0e1b-489f-ae85-56b826377364" d="M55,827.8H11l0-49.74h7.45l0,36.19h9.75l0-33.68h7.42l0,33.68h12l0-37.47h7.41Z"/><path class="1465fde9-0e1b-489f-ae85-56b826377364" d="M55.07,765.25h-44l0-28.51q0-10.75,1.2-15.62a15.72,15.72,0,0,1,4.22-7.8,9.72,9.72,0,0,1,15.11,1.51q3.22,4.44,4.05,13.27a33.5,33.5,0,0,1,3.7-7.25,57.49,57.49,0,0,1,7.15-7.71l8.59-8.19,0,16.2-9.59,9.79a72.19,72.19,0,0,0-6.48,7.14,11.71,11.71,0,0,0-1.83,4.07,33.47,33.47,0,0,0-.5,6.82v2.75H55.08v13.54ZM29.69,751.71v-10q0-9.75-.53-12.17a7.79,7.79,0,0,0-1.86-3.8,4.39,4.39,0,0,0-3.3-1.37,4.3,4.3,0,0,0-3.59,1.81,10.24,10.24,0,0,0-1.73,5.1q-0.15,1.65-.16,9.88v10.57H29.69Z"/><path class="1465fde9-0e1b-489f-ae85-56b826377364" d="M55.16,672h-44V658.46h44V672Z"/><path class="1465fde9-0e1b-489f-ae85-56b826377364" d="M55.19,645.42h-44V632.24l29.42-27.45H11.22V592.21h44V605.8l-28.72,27H55.2v12.58Z"/><path class="1465fde9-0e1b-489f-ae85-56b826377364" d="M55.27,562.79H18.71l0,19.9H11.24l0.05-53.3h7.44l0,19.86H55.28v13.54Z"/><path class="1465fde9-0e1b-489f-ae85-56b826377364" d="M55.31,520.65h-44l0-49.74H18.8l0,36.19h9.75l0-33.68H36l0,33.68h12l0-37.47h7.41Z"/><path class="1465fde9-0e1b-489f-ae85-56b826377364" d="M55.37,458.1h-44l0-28.5q0-10.75,1.2-15.63a15.73,15.73,0,0,1,4.22-7.8,9.72,9.72,0,0,1,15.11,1.51q3.22,4.44,4.05,13.27a33.48,33.48,0,0,1,3.7-7.25A57.44,57.44,0,0,1,46.84,406l8.59-8.19,0,16.2-9.59,9.79a72,72,0,0,0-6.47,7.14A11.69,11.69,0,0,0,37.52,435a33.47,33.47,0,0,0-.5,6.82v2.75H55.38V458.1ZM30,444.55v-10q0-9.74-.53-12.17a7.79,7.79,0,0,0-1.86-3.8,4.39,4.39,0,0,0-3.3-1.37A4.29,4.29,0,0,0,20.72,419,10.23,10.23,0,0,0,19,424.1q-0.15,1.65-.16,9.88v10.57H30Z"/><path class="1465fde9-0e1b-489f-ae85-56b826377364" d="M55.44,390.65h-44l0-20.27,30-12.17-30-12,0-20.31h44v12.58H20.85l34.63,13.31v13L20.81,378.07H55.45v12.58Z"/><path class="1465fde9-0e1b-489f-ae85-56b826377364" d="M55.51,312.82h-44V299.28h44v13.54Z"/><path class="1465fde9-0e1b-489f-ae85-56b826377364" d="M41.22,289.81l-0.83-13.18a10,10,0,0,0,6.4-4.83q2-3.64,2.05-9.81,0-6.54-1.81-9.86t-4.25-3.32a3.28,3.28,0,0,0-2.66,1.4,13.1,13.1,0,0,0-1.91,4.87q-0.54,2.38-1.93,10.84-1.78,10.89-4.37,15.28-3.64,6.18-8.86,6.18a8.82,8.82,0,0,1-6.29-2.91,18.6,18.6,0,0,1-4.45-8.37,49.48,49.48,0,0,1-1.52-13.2q0-12.63,3.65-19t9.7-6.7l0.38,13.54a7.23,7.23,0,0,0-4.88,3.73q-1.49,2.86-1.49,8.58a21.9,21.9,0,0,0,1.58,9.24q1,2.15,2.73,2.15t2.67-2q1.41-2.56,3-12.45a91.34,91.34,0,0,1,3.18-14.62,18.12,18.12,0,0,1,4.48-7.41,9.83,9.83,0,0,1,7-2.68,10,10,0,0,1,7.08,3.2,19.46,19.46,0,0,1,4.9,9.06,56.2,56.2,0,0,1,1.59,14.6q0,12.72-3.88,19.54A15.62,15.62,0,0,1,41.22,289.81Z"/><path class="1465fde9-0e1b-489f-ae85-56b826377364" d="M41.28,227.31l-0.83-13.18a10,10,0,0,0,6.4-4.83q2-3.64,2.05-9.81,0-6.54-1.81-9.86t-4.24-3.32a3.28,3.28,0,0,0-2.66,1.4,13.12,13.12,0,0,0-1.91,4.87q-0.54,2.38-1.93,10.84Q34.57,214.31,32,218.71q-3.64,6.18-8.86,6.18A8.82,8.82,0,0,1,16.83,222a18.62,18.62,0,0,1-4.45-8.37,49.41,49.41,0,0,1-1.52-13.2q0-12.63,3.65-19t9.7-6.7l0.38,13.54A7.23,7.23,0,0,0,19.71,192q-1.49,2.86-1.49,8.58a21.89,21.89,0,0,0,1.58,9.24q1,2.15,2.73,2.15t2.67-2q1.42-2.56,3-12.45a91.31,91.31,0,0,1,3.18-14.62,18.11,18.11,0,0,1,4.48-7.41,9.83,9.83,0,0,1,7-2.68,10,10,0,0,1,7.08,3.2,19.48,19.48,0,0,1,4.9,9.06,56.16,56.16,0,0,1,1.59,14.6q0,12.72-3.88,19.54A15.62,15.62,0,0,1,41.28,227.31Z"/><path class="1465fde9-0e1b-489f-ae85-56b826377364" d="M55.66,161.78h-44V148.24h44v13.54Z"/><path class="1465fde9-0e1b-489f-ae85-56b826377364" d="M33.95,138.08A19.77,19.77,0,0,1,22.67,135a22.89,22.89,0,0,1-6-6.25,29.1,29.1,0,0,1-4-8.67A54.22,54.22,0,0,1,11,105.64Q11,90.82,17,81.92A19.2,19.2,0,0,1,33.8,73a19.07,19.07,0,0,1,16.67,8.83q6,8.83,6,23.61,0,15-6,23.79A18.91,18.91,0,0,1,33.95,138.08Zm-0.29-14q7.48,0,11.34-5.26t3.87-13.36q0-8.1-3.81-13.29T33.58,87Q26,87,22.29,92.08t-3.73,13.43q0,8.37,3.75,13.5T33.66,124.13Z"/><path class="1465fde9-0e1b-489f-ae85-56b826377364" d="M55.76,62.31h-44V49.13L41.18,21.68H11.79V9.1h44V22.69l-28.72,27h28.7V62.31Z"/></g></svg>