<svg id="54fe31ac-4953-4be7-9ed3-8fad31b7c129" data-name="Layer 1" xmlns="http://www.w3.org/2000/svg" viewBox="0 0 64.08 478.8"><defs><style>.\35 b180d83-e591-4853-bc0b-29d3cc3a9187{fill:none;}</style></defs><title>#</title><g id="ae33bb74-fa19-417c-bb09-4f493f19f415" data-name="30 hours"><path class="5b180d83-e591-4853-bc0b-29d3cc3a9187" d="M42,469.69l-1-12.45a7,7,0,0,0,4.78-3.2,11.57,11.57,0,0,0,1.66-6.31,11.09,11.09,0,0,0-2-6.7,6.27,6.27,0,0,0-5.34-2.72,5.89,5.89,0,0,0-5,2.61,10.68,10.68,0,0,0-1.87,6.36,33.37,33.37,0,0,0,.63,5.9L27,451.75q0.1-5.21-1.48-8A4.72,4.72,0,0,0,21.34,441a4.06,4.06,0,0,0-3.54,2,9.65,9.65,0,0,0-1.33,5.35A10.17,10.17,0,0,0,18,454a6.23,6.23,0,0,0,4.38,2.84L21,468.73A14.57,14.57,0,0,1,14.64,465a17.14,17.14,0,0,1-3.75-7,34.08,34.08,0,0,1-1.36-10q0-9.47,4-15.19,3.25-4.71,7.33-4.71,5.79,0,9.24,9.65a18.33,18.33,0,0,1,3.64-9.22,8.54,8.54,0,0,1,6.82-3.46q5.79,0,9.87,6.45t4.07,16.06q0,9.11-3.45,15.1T42,469.69Z"/><path class="5b180d83-e591-4853-bc0b-29d3cc3a9187" d="M9.59,395.38q0-9.74,4.58-15.24,5.41-6.54,17.93-6.54T50,380.19q4.5,5.45,4.49,15.19t-5,15.79q-4.94,6-17.61,6-12.43,0-17.88-6.59Q9.58,405.13,9.59,395.38Zm7,0a8.71,8.71,0,0,0,1,4.16A6.45,6.45,0,0,0,21,402.38q3.27,1.33,11,1.33t10.64-1.19a7.24,7.24,0,0,0,3.86-3,9.4,9.4,0,0,0,0-8.3,6.45,6.45,0,0,0-3.49-2.84q-3.24-1.33-11-1.33t-10.64,1.19a7.33,7.33,0,0,0-3.87,3A8.59,8.59,0,0,0,16.58,395.38Z"/><path class="5b180d83-e591-4853-bc0b-29d3cc3a9187" d="M53.83,336.08h-44V322.54H27.16l0-26.54H9.87V282.46h44V296H34.63l0,26.54H53.85v13.54Z"/><path class="5b180d83-e591-4853-bc0b-29d3cc3a9187" d="M32.16,271.2a19.77,19.77,0,0,1-11.28-3.07,22.87,22.87,0,0,1-6-6.25,29.1,29.1,0,0,1-4-8.67,54.22,54.22,0,0,1-1.73-14.46q0-14.82,6.06-23.72A19.2,19.2,0,0,1,32,206.14,19.07,19.07,0,0,1,48.68,215q6,8.83,6,23.61,0,15-6,23.79A18.91,18.91,0,0,1,32.16,271.2Zm-0.29-14q7.48,0,11.34-5.26t3.87-13.36q0-8.1-3.81-13.29t-11.48-5.19q-7.56,0-11.29,5.06t-3.74,13.43q0,8.37,3.75,13.5T31.88,257.24Z"/><path class="5b180d83-e591-4853-bc0b-29d3cc3a9187" d="M10,195.66V182.12H33.81a32.63,32.63,0,0,0,7.35-.5,7.55,7.55,0,0,0,4.34-4.14,20.25,20.25,0,0,0,1.64-8.95q0-5.77-1.54-8.69a6.33,6.33,0,0,0-3.79-3.52,32.75,32.75,0,0,0-7.47-.59H10V142.17H33.13q7.92,0,11.2,1.1a11.41,11.41,0,0,1,5.52,4,22.7,22.7,0,0,1,3.58,7.89,50.89,50.89,0,0,1,1.32,12.9q0,9.61-1.47,14.57a22.54,22.54,0,0,1-3.79,7.85,11.45,11.45,0,0,1-4.88,3.8q-3.78,1.33-11.17,1.33H10Z"/><path class="5b180d83-e591-4853-bc0b-29d3cc3a9187" d="M54,127.85H10l0-28.51q0-10.75,1.2-15.62a15.75,15.75,0,0,1,4.23-7.8A9.72,9.72,0,0,1,30.6,77.43q3.22,4.44,4.05,13.27a33.48,33.48,0,0,1,3.7-7.25,57.51,57.51,0,0,1,7.15-7.71l8.59-8.19,0,16.2L44.5,93.53A72.27,72.27,0,0,0,38,100.67a11.71,11.71,0,0,0-1.83,4.07,33.52,33.52,0,0,0-.5,6.82v2.75H54.05v13.54ZM28.66,114.3v-10q0-9.75-.53-12.17a7.76,7.76,0,0,0-1.86-3.8A4.39,4.39,0,0,0,23,86.94a4.29,4.29,0,0,0-3.59,1.81,10.23,10.23,0,0,0-1.73,5.1q-0.15,1.65-.16,9.88V114.3H28.66Z"/><path class="5b180d83-e591-4853-bc0b-29d3cc3a9187" d="M39.78,63.65L39,50.48a10,10,0,0,0,6.4-4.83q2-3.64,2-9.81,0-6.54-1.81-9.86t-4.24-3.32a3.28,3.28,0,0,0-2.66,1.4,13.1,13.1,0,0,0-1.91,4.87q-0.54,2.38-1.93,10.84-1.78,10.89-4.37,15.28-3.64,6.18-8.86,6.18a8.82,8.82,0,0,1-6.29-2.91,18.61,18.61,0,0,1-4.45-8.37,49.44,49.44,0,0,1-1.52-13.2q0-12.63,3.65-19t9.7-6.7L23.1,24.58a7.23,7.23,0,0,0-4.88,3.73q-1.49,2.86-1.49,8.58a21.89,21.89,0,0,0,1.58,9.24q1,2.15,2.73,2.15t2.67-2q1.42-2.56,3-12.45A91.34,91.34,0,0,1,29.84,19.2a18.12,18.12,0,0,1,4.48-7.41,9.83,9.83,0,0,1,7-2.68,10,10,0,0,1,7.08,3.2,19.48,19.48,0,0,1,4.9,9.06A56.16,56.16,0,0,1,54.91,36q0,12.72-3.88,19.54A15.62,15.62,0,0,1,39.78,63.65Z"/></g></svg>