<svg id="b157f942-1251-4e27-8bb2-8c6359892bde" data-name="Layer 1" xmlns="http://www.w3.org/2000/svg" viewBox="0 0 64.08 1154.16"><defs><style>.db29cae8-c73f-4584-aa2f-14e4f268c73d{fill:none;}</style></defs><title>#</title><g id="87d475a1-26e7-47c6-988b-10357cc6e50e" data-name="no more parties"><path class="db29cae8-c73f-4584-aa2f-14e4f268c73d" d="M53.57,1145.23h-44V1132L39,1104.6H9.6V1092h44v13.59l-28.72,27h28.7v12.58Z"/><path class="db29cae8-c73f-4584-aa2f-14e4f268c73d" d="M31.9,1080.44a19.77,19.77,0,0,1-11.28-3.07,22.9,22.9,0,0,1-6-6.25,29.08,29.08,0,0,1-4-8.67A54.18,54.18,0,0,1,8.91,1048q0-14.82,6.06-23.72a19.19,19.19,0,0,1,16.79-8.9,19.07,19.07,0,0,1,16.67,8.83q6,8.83,6,23.61,0,15-6,23.79A18.91,18.91,0,0,1,31.9,1080.44Zm-0.29-14q7.48,0,11.34-5.26t3.87-13.36q0-8.1-3.81-13.29t-11.48-5.19q-7.56,0-11.29,5.06t-3.74,13.43q0,8.37,3.75,13.5T31.62,1066.48Z"/><path class="db29cae8-c73f-4584-aa2f-14e4f268c73d" d="M53.73,978.95h-44l0-20.27,30-12.17-30-12,0-20.32h44v12.58H19.14l34.63,13.31v13L19.11,966.37H53.75v12.58Z"/><path class="db29cae8-c73f-4584-aa2f-14e4f268c73d" d="M32.08,903.45a19.77,19.77,0,0,1-11.28-3.07,22.89,22.89,0,0,1-6-6.25,29.1,29.1,0,0,1-4-8.67A54.22,54.22,0,0,1,9.08,871q0-14.82,6.06-23.72a19.19,19.19,0,0,1,16.79-8.9,19.07,19.07,0,0,1,16.67,8.83q6,8.83,6,23.61,0,15-6,23.79A18.91,18.91,0,0,1,32.08,903.45Zm-0.29-14q7.47,0,11.34-5.26T47,870.88q0-8.1-3.81-13.29t-11.48-5.19q-7.56,0-11.29,5.06t-3.74,13.43q0,8.37,3.75,13.5T31.79,889.5Z"/><path class="db29cae8-c73f-4584-aa2f-14e4f268c73d" d="M53.88,827.77h-44l0-28.51q0-10.75,1.2-15.63a15.73,15.73,0,0,1,4.22-7.8,9.72,9.72,0,0,1,15.11,1.51q3.22,4.44,4.05,13.27a33.53,33.53,0,0,1,3.7-7.25,57.46,57.46,0,0,1,7.15-7.71l8.59-8.19,0,16.2-9.58,9.79a72.24,72.24,0,0,0-6.48,7.14A11.73,11.73,0,0,0,36,804.67a33.47,33.47,0,0,0-.5,6.82v2.75H53.9v13.54ZM28.5,814.23v-10q0-9.75-.53-12.17a7.77,7.77,0,0,0-1.86-3.8,4.39,4.39,0,0,0-3.3-1.37,4.29,4.29,0,0,0-3.59,1.81,10.23,10.23,0,0,0-1.73,5.1q-0.15,1.65-.16,9.88v10.57H28.5Z"/><path class="db29cae8-c73f-4584-aa2f-14e4f268c73d" d="M53.95,760.15h-44l0-49.74h7.44l0,36.19h9.76l0-33.68H34.6l0,33.68h12l0-37.47H54Z"/><path class="db29cae8-c73f-4584-aa2f-14e4f268c73d" d="M54,671.61H10l0-21.73q0-12.35.68-16.11A19.71,19.71,0,0,1,15,624.12a10.76,10.76,0,0,1,8.57-3.89,10.46,10.46,0,0,1,6.81,2.24,15.47,15.47,0,0,1,4.33,5.7,25.59,25.59,0,0,1,2.08,7,117.22,117.22,0,0,1,.62,14v8.83H54v13.54ZM17.49,658.07H30v-7.41q0-8-.68-10.71a9.32,9.32,0,0,0-2.16-4.23,4.6,4.6,0,0,0-3.42-1.53,4.72,4.72,0,0,0-4,2.15,11.41,11.41,0,0,0-2,5.45q-0.3,2.43-.31,9.75v6.54Z"/><path class="db29cae8-c73f-4584-aa2f-14e4f268c73d" d="M54.15,555.58v14.73l-10,5.86,0,26.81,10,5.54v14.37l-44-26.13V582.43ZM36.71,580.51l-16.34,9.24,16.32,9.06Z"/><path class="db29cae8-c73f-4584-aa2f-14e4f268c73d" d="M54.16,548.35h-44l0-28.51q0-10.75,1.2-15.63a15.73,15.73,0,0,1,4.23-7.8,9.72,9.72,0,0,1,15.11,1.51q3.22,4.44,4.05,13.27a33.44,33.44,0,0,1,3.7-7.25,57.49,57.49,0,0,1,7.15-7.71L54.22,488l0,16.2L44.61,514a72.06,72.06,0,0,0-6.48,7.14,11.69,11.69,0,0,0-1.83,4.07,33.45,33.45,0,0,0-.5,6.82v2.75H54.17v13.54ZM28.77,534.8v-10q0-9.75-.53-12.17a7.78,7.78,0,0,0-1.86-3.8,4.39,4.39,0,0,0-3.3-1.37,4.29,4.29,0,0,0-3.59,1.81,10.24,10.24,0,0,0-1.73,5.1q-0.15,1.65-.16,9.88V534.8H28.77Z"/><path class="db29cae8-c73f-4584-aa2f-14e4f268c73d" d="M54.24,465.62H17.68l0,19.9H10.21l0.05-53.3h7.45l0,19.86H54.25v13.54Z"/><path class="db29cae8-c73f-4584-aa2f-14e4f268c73d" d="M54.28,423.89h-44V410.35h44v13.54Z"/><path class="db29cae8-c73f-4584-aa2f-14e4f268c73d" d="M54.3,397.44h-44l0-49.74h7.44l0,36.19h9.76l0-33.68H35l0,33.68h12l0-37.47h7.42Z"/><path class="db29cae8-c73f-4584-aa2f-14e4f268c73d" d="M40,338.37L39.22,325.2a10,10,0,0,0,6.4-4.83q2-3.64,2.05-9.81,0-6.54-1.81-9.86t-4.25-3.32a3.28,3.28,0,0,0-2.66,1.4A13.12,13.12,0,0,0,37,303.65Q36.5,306,35.11,314.49q-1.78,10.89-4.37,15.28-3.64,6.18-8.86,6.18A8.82,8.82,0,0,1,15.6,333a18.62,18.62,0,0,1-4.45-8.37,49.49,49.49,0,0,1-1.52-13.2q0-12.63,3.65-19t9.7-6.7l0.38,13.54A7.23,7.23,0,0,0,18.48,303Q17,305.89,17,311.61a21.9,21.9,0,0,0,1.58,9.24q1,2.15,2.73,2.15,1.56,0,2.67-2,1.41-2.56,3-12.45a91.42,91.42,0,0,1,3.18-14.62,18.12,18.12,0,0,1,4.48-7.41,9.83,9.83,0,0,1,7-2.68,10,10,0,0,1,7.08,3.2,19.46,19.46,0,0,1,4.9,9.06,56.2,56.2,0,0,1,1.59,14.6q0,12.72-3.88,19.54A15.62,15.62,0,0,1,40,338.37Z"/><path class="db29cae8-c73f-4584-aa2f-14e4f268c73d" d="M54.45,246.82h-44V233.27h44v13.54Z"/><path class="db29cae8-c73f-4584-aa2f-14e4f268c73d" d="M54.48,220.23h-44V207.06L39.9,179.6H10.51V167h44v13.59l-28.72,27h28.7v12.58Z"/><path class="db29cae8-c73f-4584-aa2f-14e4f268c73d" d="M54.57,126.3H10.92V112.75H47.17l0-33.67h7.42Z"/><path class="db29cae8-c73f-4584-aa2f-14e4f268c73d" d="M54.68,8.93V23.67l-10,5.86,0,26.81,10,5.54V76.24l-44-26.13V35.79ZM37.25,33.87L20.91,43.11l16.32,9.06Z"/></g></svg>