<svg id="c2dfe7b0-95e6-4571-b5db-93ed2a0b914a" data-name="Layer 1" xmlns="http://www.w3.org/2000/svg" viewBox="0 0 64.8 1475.28"><defs><style>.\35 77e8963-2d54-4c64-af36-2d57a1360a1d{fill:none;}</style></defs><title>#</title><g id="3f77ef6b-a34c-4238-8b30-5fe29cbfbfe6" data-name="Facts"><path class="577e8963-2d54-4c64-af36-2d57a1360a1d" d="M53.66,1466.25h-44l0-46h7.45l0,32.44H27.53l0-28H35l0,28h18.7v13.54Z"/><path class="577e8963-2d54-4c64-af36-2d57a1360a1d" d="M53.77,1353.78v14.73l-10,5.86,0,26.81,10,5.54v14.37L9.73,1395v-14.32Zm-17.44,24.94L20,1388,36.32,1397Z"/><path class="577e8963-2d54-4c64-af36-2d57a1360a1d" d="M37.64,1303.68l2.74-13.13a20.38,20.38,0,0,1,10.69,10q3.49,7,3.48,17.82,0,13.36-6,22a18.93,18.93,0,0,1-16.38,8.6q-11,0-17.06-8.65t-6.06-22.74q0-12.31,4.79-20a17.35,17.35,0,0,1,8.11-6.86L24,1304.14a9.71,9.71,0,0,0-5.41,5,19.55,19.55,0,0,0-2,9.17q0,7.46,3.5,12.1T31.52,1335q8.35,0,11.89-4.58t3.55-11.9a18.23,18.23,0,0,0-2.24-9.29A12.63,12.63,0,0,0,37.64,1303.68Z"/><path class="577e8963-2d54-4c64-af36-2d57a1360a1d" d="M53.86,1263.83H17.3l0,19.9H9.84l0.05-53.31h7.44l0,19.86H53.88v13.54Z"/><path class="577e8963-2d54-4c64-af36-2d57a1360a1d" d="M39.58,1225.12l-0.83-13.18a10,10,0,0,0,6.4-4.83q2-3.64,2-9.81,0-6.54-1.81-9.86t-4.24-3.32a3.28,3.28,0,0,0-2.66,1.4,13.1,13.1,0,0,0-1.91,4.87q-0.54,2.38-1.93,10.84-1.78,10.89-4.37,15.28-3.64,6.18-8.86,6.18a8.82,8.82,0,0,1-6.29-2.91,18.61,18.61,0,0,1-4.45-8.37,49.48,49.48,0,0,1-1.52-13.2q0-12.63,3.65-19t9.7-6.7L22.9,1186a7.23,7.23,0,0,0-4.88,3.73q-1.49,2.86-1.49,8.58a21.89,21.89,0,0,0,1.58,9.24q1,2.15,2.73,2.15t2.67-2q1.42-2.56,3-12.45a91.32,91.32,0,0,1,3.18-14.62,18.12,18.12,0,0,1,4.48-7.41,9.83,9.83,0,0,1,7-2.68,10,10,0,0,1,7.08,3.2,19.47,19.47,0,0,1,4.9,9.06,56.15,56.15,0,0,1,1.59,14.59q0,12.72-3.88,19.54A15.62,15.62,0,0,1,39.58,1225.12Z"/><path class="577e8963-2d54-4c64-af36-2d57a1360a1d" d="M37.85,1090.23l2.74-13.13a20.39,20.39,0,0,1,10.69,10q3.49,7,3.48,17.82,0,13.36-6,22a18.94,18.94,0,0,1-16.38,8.6q-11,0-17.06-8.65t-6.06-22.74q0-12.31,4.79-20a17.35,17.35,0,0,1,8.11-6.86l2.09,13.41a9.71,9.71,0,0,0-5.41,5,19.53,19.53,0,0,0-2,9.17q0,7.46,3.5,12.1t11.37,4.64q8.35,0,11.89-4.58t3.55-11.9a18.21,18.21,0,0,0-2.24-9.29A12.63,12.63,0,0,0,37.85,1090.23Z"/><path class="577e8963-2d54-4c64-af36-2d57a1360a1d" d="M54.06,1065.43H10v-13.54H27.38l0-26.54H10.09v-13.54h44v13.54H34.85l0,26.54H54.07v13.54Z"/><path class="577e8963-2d54-4c64-af36-2d57a1360a1d" d="M54.18,937.32V952l-10,5.86,0,26.81,10,5.54v14.37l-44-26.13V964.17ZM36.75,962.25L20.41,971.5l16.32,9.06Z"/><path class="577e8963-2d54-4c64-af36-2d57a1360a1d" d="M54.19,930.09h-44l0-28.5q0-10.75,1.2-15.63a15.73,15.73,0,0,1,4.23-7.8,9.72,9.72,0,0,1,15.11,1.51Q34,884.1,34.8,892.93a33.53,33.53,0,0,1,3.7-7.25A57.51,57.51,0,0,1,45.65,878l8.59-8.19,0,16.2-9.58,9.79a72.39,72.39,0,0,0-6.48,7.14A11.71,11.71,0,0,0,36.34,907a33.45,33.45,0,0,0-.5,6.82v2.75H54.2v13.54ZM28.81,916.54v-10q0-9.74-.53-12.17a7.77,7.77,0,0,0-1.86-3.8,4.39,4.39,0,0,0-3.3-1.37A4.29,4.29,0,0,0,19.54,891a10.23,10.23,0,0,0-1.73,5.1q-0.15,1.65-.16,9.88v10.57H28.81Z"/><path class="577e8963-2d54-4c64-af36-2d57a1360a1d" d="M54.26,862.09H10.61V848.55H46.85l0-33.68H54.3Z"/><path class="577e8963-2d54-4c64-af36-2d57a1360a1d" d="M54.31,805.63h-44V792.09h44v13.54Z"/><path class="577e8963-2d54-4c64-af36-2d57a1360a1d" d="M54.34,779.19h-44l0-49.74h7.44l0,36.19h9.75l0-33.68H35l0,33.68h12l0-37.47h7.42Z"/><path class="577e8963-2d54-4c64-af36-2d57a1360a1d" d="M54.42,690.6h-44V677.06H27.75l0-26.54H10.46V637h44v13.54H35.22l0,26.54H54.44V690.6Z"/><path class="577e8963-2d54-4c64-af36-2d57a1360a1d" d="M54.49,623h-44l0-49.74H18l0,36.19H27.7l0-33.68h7.42l0,33.68h12l0-37.47h7.41Z"/><path class="577e8963-2d54-4c64-af36-2d57a1360a1d" d="M54.61,500v14.73l-10,5.86,0,26.81,10,5.54v14.37l-44-26.13V526.84ZM37.18,524.92l-16.34,9.24,16.32,9.06Z"/><path class="577e8963-2d54-4c64-af36-2d57a1360a1d" d="M54.63,484.66H18.06l0,19.9H10.6l0.05-53.31H18.1l0,19.86H54.64v13.54Z"/><path class="577e8963-2d54-4c64-af36-2d57a1360a1d" d="M54.71,399.37l-44,24V408.66l32.59-17L10.73,375.26V360.89l44,24v14.46Z"/><path class="577e8963-2d54-4c64-af36-2d57a1360a1d" d="M54.75,354h-44l0-49.74h7.45l0,36.19H28l0-33.68h7.42l0,33.68h12l0-37.47H54.8Z"/><path class="577e8963-2d54-4c64-af36-2d57a1360a1d" d="M54.82,291.43h-44l0-28.51q0-10.75,1.2-15.63a15.74,15.74,0,0,1,4.22-7.8A9.72,9.72,0,0,1,31.38,241q3.22,4.44,4.05,13.27a33.44,33.44,0,0,1,3.7-7.25,57.42,57.42,0,0,1,7.15-7.71l8.59-8.19,0,16.2-9.59,9.79a72.13,72.13,0,0,0-6.47,7.14A11.69,11.69,0,0,0,37,268.33a33.47,33.47,0,0,0-.5,6.82v2.75H54.83v13.54ZM29.43,277.89v-10q0-9.75-.53-12.17a7.79,7.79,0,0,0-1.86-3.8,4.39,4.39,0,0,0-3.3-1.37,4.29,4.29,0,0,0-3.59,1.81,10.23,10.23,0,0,0-1.73,5.1q-0.15,1.65-.16,9.88v10.57H29.43Z"/><path class="577e8963-2d54-4c64-af36-2d57a1360a1d" d="M40.56,227.24l-0.83-13.18a10,10,0,0,0,6.4-4.83q2-3.64,2.05-9.81,0-6.54-1.81-9.86t-4.24-3.32a3.28,3.28,0,0,0-2.66,1.4,13.11,13.11,0,0,0-1.91,4.87q-0.54,2.38-1.93,10.84-1.78,10.89-4.37,15.28-3.64,6.18-8.86,6.18a8.82,8.82,0,0,1-6.29-2.91,18.61,18.61,0,0,1-4.45-8.37,49.48,49.48,0,0,1-1.52-13.2q0-12.63,3.65-19t9.7-6.7l0.38,13.54A7.24,7.24,0,0,0,19,191.89q-1.49,2.86-1.49,8.58a21.92,21.92,0,0,0,1.58,9.24q1,2.15,2.73,2.15t2.67-2q1.41-2.56,3-12.45a91.42,91.42,0,0,1,3.18-14.62,18.12,18.12,0,0,1,4.48-7.41,9.83,9.83,0,0,1,7-2.68,10,10,0,0,1,7.08,3.2,19.47,19.47,0,0,1,4.9,9.06,56.16,56.16,0,0,1,1.59,14.6q0,12.72-3.88,19.54A15.62,15.62,0,0,1,40.56,227.24Z"/><path class="577e8963-2d54-4c64-af36-2d57a1360a1d" d="M54.94,161.71h-44V148.17H55v13.54Z"/><path class="577e8963-2d54-4c64-af36-2d57a1360a1d" d="M33.23,138a19.78,19.78,0,0,1-11.28-3.07,22.93,22.93,0,0,1-6-6.25A29.13,29.13,0,0,1,12,120a54.22,54.22,0,0,1-1.73-14.46q0-14.82,6.06-23.72A19.19,19.19,0,0,1,33.09,73a19.07,19.07,0,0,1,16.67,8.83q6,8.83,6,23.61,0,15-6,23.79A18.91,18.91,0,0,1,33.23,138Zm-0.29-14q7.47,0,11.34-5.26t3.87-13.36q0-8.1-3.81-13.29T32.86,87Q25.3,87,21.57,92t-3.74,13.43q0,8.37,3.75,13.5T32.95,124.06Z"/><path class="577e8963-2d54-4c64-af36-2d57a1360a1d" d="M55,62.24H11V49.07L40.46,21.61H11.07V9h44V22.62l-28.72,27h28.7V62.24Z"/></g></svg>