<svg id="111725ec-b019-4198-be83-521bff929168" data-name="Layer 1" xmlns="http://www.w3.org/2000/svg" viewBox="0 0 64.08 256.32"><defs><style>.a27c1799-b785-414d-a5af-9b8e2498c425{fill:none;}</style></defs><title>#</title><g id="c0ebe6a3-19c2-456b-8a9d-adab71184e93" data-name="Fade"><path class="a27c1799-b785-414d-a5af-9b8e2498c425" d="M53.93,247.33h-44l0-46h7.44l0,32.44H27.79l0-28h7.44l0,28h18.7v13.54Z"/><path class="a27c1799-b785-414d-a5af-9b8e2498c425" d="M54,134.86V149.6l-10,5.86,0,26.81,10,5.54v14.37L10,176V161.72ZM36.6,159.8L20.26,169l16.32,9.06Z"/><path class="a27c1799-b785-414d-a5af-9b8e2498c425" d="M10,127.73l0-24.75a72.9,72.9,0,0,1,.85-12.77A26.38,26.38,0,0,1,15,80.09a19.69,19.69,0,0,1,7.14-6.41,22.36,22.36,0,0,1,10.4-2.2,20,20,0,0,1,9.36,2.06,20.19,20.19,0,0,1,7.77,7.18,28.79,28.79,0,0,1,3.5,9.52,61.47,61.47,0,0,1,.92,12l0,25.49H10Zm7.46-13.54H46.64V104.07a55.66,55.66,0,0,0-.41-8.19,15.6,15.6,0,0,0-1.83-5.47,9.26,9.26,0,0,0-4.24-3.55,19.46,19.46,0,0,0-8.06-1.37,17.88,17.88,0,0,0-7.84,1.37A10.39,10.39,0,0,0,20,90.71,16.16,16.16,0,0,0,17.93,97a93,93,0,0,0-.43,11.12v6.09Z"/><path class="a27c1799-b785-414d-a5af-9b8e2498c425" d="M54.11,60h-44l0-49.74H17.6l0,36.19h9.75l0-33.68h7.41l0,33.68h12L46.75,9h7.41Z"/></g></svg>