<?xml version="1.0" encoding="utf-8"?>
<!-- Generator: Adobe Illustrator 19.2.1, SVG Export Plug-In . SVG Version: 6.00 Build 0)  -->
<!DOCTYPE svg PUBLIC "-//W3C//DTD SVG 1.1//EN" "http://www.w3.org/Graphics/SVG/1.1/DTD/svg11.dtd">
<svg preserveAspectRatio="none" version="1.1" id="Layer_1" xmlns="http://www.w3.org/2000/svg" xmlns:xlink="http://www.w3.org/1999/xlink" x="0px" y="0px"
	 viewBox="0 0 170.7 69.6" style="enable-background:new 0 0 170.7 69.6;" xml:space="preserve">
<style type="text/css">
	.st0{fill:none;}
	.st1{fill:none;stroke:#FFFFFF;stroke-miterlimit:10;}
</style>
<g>
	<g>
		<rect y="18" class="st0" width="170.7" height="51"/>
		<path class="st1" d="M45.8,51.5L17.3,18h17.4l20.1,24.8L74.4,18h17L62.9,51.5H45.8z"/>
		<path class="st1" d="M95.7,42.6l14.8-0.8c0.5,1.6,1.7,2.8,3.8,3.6c2.1,0.8,4.6,1.3,7.5,1.3c3.1,0,5.8-0.5,8-1.5
			c2.2-1,3.2-2.4,3.2-4.1c0-1.6-1-2.9-3.1-3.8c-2.1-0.9-4.6-1.4-7.5-1.4c-2,0-4.3,0.2-7,0.5l1.7-5.2c4.1,0,7.3-0.3,9.4-1.1
			c2.2-0.8,3.3-1.9,3.3-3.2c0-1.1-0.8-2-2.4-2.7c-1.6-0.7-3.7-1-6.4-1c-2.6,0-4.8,0.4-6.7,1.1c-1.8,0.8-3,1.9-3.4,3.3l-14.1-1
			c1-2,2.5-3.6,4.4-4.9c2-1.2,4.7-2.2,8.3-2.9c3.5-0.7,7.5-1,11.9-1c7.5,0,13.5,1,18,3c3.7,1.6,5.6,3.5,5.6,5.6
			c0,2.9-3.8,5.3-11.5,7c4.6,0.4,8.2,1.3,10.9,2.8c2.7,1.4,4.1,3.2,4.1,5.2c0,2.9-2.6,5.4-7.7,7.5s-11.5,3.1-19.1,3.1
			c-7.2,0-13.2-0.9-17.9-2.6C99.2,47.7,96.5,45.4,95.7,42.6z"/>
	</g>
	<line class="st1" x1="19.5" y1="0" x2="152.5" y2="0"/>
	<line class="st1" x1="19.5" y1="67" x2="152.5" y2="67"/>
</g>
<g>
</g>
<g>
</g>
<g>
</g>
<g>
</g>
<g>
</g>
<g>
</g>
</svg>
